autopkgtest: DBG: testbed init
autopkgtest [00:57:40]: starting date and time: 2023-02-26 00:57:40+0800
autopkgtest [00:57:40]: version 5.28
autopkgtest [00:57:40]: host debian; command line: /usr/bin/autopkgtest /home/minami/Documents/openkylin-riscv/src/libvpx_1.12.0-ok1.dsc -o /home/minami/Documents/openkylin-riscv/test/libvpx -d -B -- qemu -u root -p openkylin --qemu-architecture=riscv64 -c 8 --ram-size=8192 -d '--qemu-options=-machine virt -kernel /home/minami/Documents/ukylin/u-boot.bin' /home/minami/Documents/openkylin-riscv/t.qcow2
autopkgtest: DBG: got reply from testbed: ok
autopkgtest: DBG: testbed open, scratch=None
autopkgtest: DBG: sending command to testbed: open
autopkgtest-virt-qemu: DBG: executing open
autopkgtest-virt-qemu: DBG: find_free_port: trying 10022
autopkgtest-virt-qemu: DBG: find_free_port: 10022 is free
autopkgtest-virt-qemu: DBG: autopkgtest does not know how to boot this machine, hopefully nothing special needs to be done?
autopkgtest-virt-qemu: DBG: qemu architecture: riscv64
autopkgtest-virt-qemu: DBG: qemu command: qemu-system-riscv64
autopkgtest-virt-qemu: DBG: execute-timeout: qemu-img info --output=json /home/minami/Documents/openkylin-riscv/t.qcow2
autopkgtest-virt-qemu: DBG: Creating temporary overlay image in /tmp/autopkgtest-qemu.7u_ps0bf/overlay.img
autopkgtest-virt-qemu: DBG: execute-timeout: qemu-img create -f qcow2 -F qcow2 -b /home/minami/Documents/openkylin-riscv/t.qcow2 /tmp/autopkgtest-qemu.7u_ps0bf/overlay.img
autopkgtest-virt-qemu: DBG: Forwarding local port 10022 to VM ssh port 22
autopkgtest-virt-qemu: DBG: Assuming nothing special needs to be done to set up firmware to boot this machine (boot method: none)
autopkgtest-virt-qemu: DBG: full qemu command-line: ['qemu-system-riscv64', '-m', '8192', '-smp', '8', '-nographic', '-device', 'virtio-net-device,netdev=usernet', '-netdev', 'user,id=usernet,hostfwd=tcp:127.0.0.1:10022-:22', '-object', 'rng-random,filename=/dev/urandom,id=rng0', '-device', 'virtio-rng-pci,rng=rng0,id=rng-device0', '-monitor', 'unix:/tmp/autopkgtest-qemu.7u_ps0bf/monitor,server=on,wait=off', '-virtfs', 'local,id=autopkgtest,path=/tmp/autopkgtest-qemu.7u_ps0bf/shared,security_model=none,mount_tag=autopkgtest', '-device', 'virtio-serial', '-chardev', 'socket,path=/tmp/autopkgtest-qemu.7u_ps0bf/hvc0,server=on,wait=off,id=hvc0', '-device', 'virtconsole,chardev=hvc0', '-chardev', 'socket,path=/tmp/autopkgtest-qemu.7u_ps0bf/hvc1,server=on,wait=off,id=hvc1', '-device', 'virtconsole,chardev=hvc1', '-serial', 'unix:/tmp/autopkgtest-qemu.7u_ps0bf/ttyS0,server=on,wait=off', '-drive', 'index=0,file=/tmp/autopkgtest-qemu.7u_ps0bf/overlay.img,format=qcow2,cache=unsafe,if=virtio,discard=unmap', '-machine', 'virt', '-kernel', '/home/minami/Documents/ukylin/u-boot.bin']
autopkgtest-virt-qemu: DBG: expect: b' login: '
autopkgtest-virt-qemu: DBG: expect: found "'login prompt on serial console'"
autopkgtest-virt-qemu: DBG: expect: b'ok'
autopkgtest-virt-qemu: DBG: expect: found "b'ok'"
autopkgtest-virt-qemu: DBG: setup_shell(): there already is a shell on hvc1
qemu-system-riscv64: warning: 9p: degraded performance: a reasonable high msize should be chosen on client/guest side (chosen msize is <= 8192). See https://wiki.qemu.org/Documentation/9psetup#msize for details.
autopkgtest-virt-qemu: DBG: expect: b'ff4c69c0-e81d-4119-8cee-7374e00a7df9[1]'
autopkgtest-virt-qemu: DBG: expect: found "b'ff4c69c0-e81d-4119-8cee-7374e00a7df9[1]'"
autopkgtest-virt-qemu: DBG: expect: b'ff4c69c0-e81d-4119-8cee-7374e00a7df9[2]'
autopkgtest-virt-qemu: DBG: expect: found "b'ff4c69c0-e81d-4119-8cee-7374e00a7df9[2]'"
autopkgtest-virt-qemu: DBG: expect: b'ff4c69c0-e81d-4119-8cee-7374e00a7df9[3]'
autopkgtest-virt-qemu: DBG: expect: found "b'ff4c69c0-e81d-4119-8cee-7374e00a7df9[3]'"
autopkgtest-virt-qemu: DBG: expect: b'/python'
autopkgtest-virt-qemu: DBG: expect: found "b'/python'"
autopkgtest-virt-qemu: DBG: expect: b'# '
autopkgtest-virt-qemu: DBG: expect: found "b'# '"
autopkgtest-virt-qemu: DBG: expect: b'ff4c69c0-e81d-4119-8cee-7374e00a7df9[4]'
autopkgtest-virt-qemu: DBG: expect: found "b'ff4c69c0-e81d-4119-8cee-7374e00a7df9[4]'"
autopkgtest-virt-qemu: DBG: execute-timeout: /tmp/autopkgtest-qemu.7u_ps0bf/runcmd true
autopkgtest-virt-qemu: DBG: can connect to autopkgtest sh in VM
autopkgtest-virt-qemu: DBG: expect: b'ff4c69c0-e81d-4119-8cee-7374e00a7df9[5]'
autopkgtest-virt-qemu: DBG: expect: found "b'ff4c69c0-e81d-4119-8cee-7374e00a7df9[5]'"
autopkgtest-virt-qemu: DBG: determine_normal_user: got user "openkylin"
autopkgtest-virt-qemu: DBG: auxverb = ['/tmp/autopkgtest-qemu.7u_ps0bf/runcmd'], downtmp = None
autopkgtest-virt-qemu: DBG: execute-timeout: /tmp/autopkgtest-qemu.7u_ps0bf/runcmd mktemp --directory --tmpdir autopkgtest.XXXXXX
autopkgtest-virt-qemu: DBG: execute-timeout: /tmp/autopkgtest-qemu.7u_ps0bf/runcmd chmod 1777 /tmp/autopkgtest.Fc1c2w
autopkgtest: DBG: got reply from testbed: ok /tmp/autopkgtest.Fc1c2w
autopkgtest: DBG: sending command to testbed: print-execute-command
autopkgtest-virt-qemu: DBG: executing print-execute-command
autopkgtest: DBG: got reply from testbed: ok /tmp/autopkgtest-qemu.7u_ps0bf/runcmd
autopkgtest: DBG: sending command to testbed: capabilities
autopkgtest-virt-qemu: DBG: executing capabilities
autopkgtest: DBG: got reply from testbed: ok isolation-machine reboot revert revert-full-system root-on-testbed suggested-normal-user=openkylin
autopkgtest: DBG: testbed capabilities: ['isolation-machine', 'reboot', 'revert', 'revert-full-system', 'root-on-testbed', 'suggested-normal-user=openkylin', 'has_internet']
autopkgtest: DBG: testbed command ['mkdir', '-p', '/tmp/autopkgtest.Fc1c2w'], kind short, sout raw, serr pipe, env []
autopkgtest: DBG: testbed command exited with code 0
autopkgtest: DBG: sending command to testbed: copydown /usr/share/autopkgtest/lib/in-testbed/wrapper.sh /tmp/autopkgtest.Fc1c2w/wrapper.sh
autopkgtest-virt-qemu: DBG: executing copydown /usr/share/autopkgtest/lib/in-testbed/wrapper.sh /tmp/autopkgtest.Fc1c2w/wrapper.sh
autopkgtest-virt-qemu: DBG: ['cmdls', "(['cat'], ['/tmp/autopkgtest-qemu.7u_ps0bf/runcmd', 'sh', '-ec', 'cat >/tmp/autopkgtest.Fc1c2w/wrapper.sh; chmod +x -- /tmp/autopkgtest.Fc1c2w/wrapper.sh'])"]
autopkgtest-virt-qemu: DBG: ['srcstdin', "<_io.BufferedReader name='/usr/share/autopkgtest/lib/in-testbed/wrapper.sh'>", 'deststdout', "<_io.BufferedReader name='/dev/null'>", 'devnull_read', <_io.BufferedReader name='/dev/null'>]
autopkgtest-virt-qemu: DBG:  +< cat
autopkgtest-virt-qemu: DBG:  +> /tmp/autopkgtest-qemu.7u_ps0bf/runcmd sh -ec cat >/tmp/autopkgtest.Fc1c2w/wrapper.sh; chmod +x -- /tmp/autopkgtest.Fc1c2w/wrapper.sh
autopkgtest-virt-qemu: DBG:  +>?
autopkgtest-virt-qemu: DBG:  +<?
autopkgtest: DBG: got reply from testbed: ok
autopkgtest: DBG: testbed command ['chmod', '-R', '0755', '--', '/tmp/autopkgtest.Fc1c2w/wrapper.sh'], kind short, sout raw, serr pipe, env []
autopkgtest: DBG: testbed command exited with code 0
autopkgtest: DBG: testbed command ['dpkg', '--print-architecture'], kind short, sout pipe, serr pipe, env []
autopkgtest: DBG: testbed command exited with code 0
autopkgtest [00:58:30]: testbed dpkg architecture: riscv64
autopkgtest: DBG: testbed command ['sh', '-ec', 'command -v eatmydata'], kind short, sout pipe, serr pipe, env []
autopkgtest: DBG: testbed command exited with code 127
autopkgtest: DBG: testbed command ['sh', '-ec', 'command -v dpkg-query'], kind short, sout pipe, serr pipe, env []
autopkgtest: DBG: testbed command exited with code 0
autopkgtest: DBG: testbed command ['sh', '-ec', "dpkg-query --show -f '${Package}\\t${Version}\\n' > /tmp/autopkgtest.Fc1c2w/testbed-packages"], kind short, sout raw, serr pipe, env []
autopkgtest: DBG: testbed command exited with code 0
autopkgtest: DBG: sending command to testbed: copyup /tmp/autopkgtest.Fc1c2w/testbed-packages /home/minami/Documents/openkylin-riscv/test/libvpx/testbed-packages
autopkgtest-virt-qemu: DBG: executing copyup /tmp/autopkgtest.Fc1c2w/testbed-packages /home/minami/Documents/openkylin-riscv/test/libvpx/testbed-packages
autopkgtest-virt-qemu: DBG: ['cmdls', "(['/tmp/autopkgtest-qemu.7u_ps0bf/runcmd', 'sh', '-ec', 'cat </tmp/autopkgtest.Fc1c2w/testbed-packages'], ['cat'])"]
autopkgtest-virt-qemu: DBG: ['srcstdin', "<_io.BufferedReader name='/dev/null'>", 'deststdout', "<_io.BufferedWriter name='/home/minami/Documents/openkylin-riscv/test/libvpx/testbed-packages'>", 'devnull_read', <_io.BufferedReader name='/dev/null'>]
autopkgtest-virt-qemu: DBG:  +< /tmp/autopkgtest-qemu.7u_ps0bf/runcmd sh -ec cat </tmp/autopkgtest.Fc1c2w/testbed-packages
autopkgtest-virt-qemu: DBG:  +> cat
autopkgtest-virt-qemu: DBG:  +>?
autopkgtest-virt-qemu: DBG:  +<?
autopkgtest: DBG: got reply from testbed: ok
autopkgtest: DBG: testbed supports reboot, creating /tmp/autopkgtest-reboot
autopkgtest: DBG: testbed command ['mkdir', '-p', '/tmp/autopkgtest.Fc1c2w'], kind short, sout raw, serr pipe, env []
autopkgtest: DBG: testbed command exited with code 0
autopkgtest: DBG: sending command to testbed: copydown /usr/share/autopkgtest/lib/in-testbed/reboot.sh /tmp/autopkgtest.Fc1c2w/autopkgtest-reboot
autopkgtest-virt-qemu: DBG: executing copydown /usr/share/autopkgtest/lib/in-testbed/reboot.sh /tmp/autopkgtest.Fc1c2w/autopkgtest-reboot
autopkgtest-virt-qemu: DBG: ['cmdls', "(['cat'], ['/tmp/autopkgtest-qemu.7u_ps0bf/runcmd', 'sh', '-ec', 'cat >/tmp/autopkgtest.Fc1c2w/autopkgtest-reboot; chmod +x -- /tmp/autopkgtest.Fc1c2w/autopkgtest-reboot'])"]
autopkgtest-virt-qemu: DBG: ['srcstdin', "<_io.BufferedReader name='/usr/share/autopkgtest/lib/in-testbed/reboot.sh'>", 'deststdout', "<_io.BufferedReader name='/dev/null'>", 'devnull_read', <_io.BufferedReader name='/dev/null'>]
autopkgtest-virt-qemu: DBG:  +< cat
autopkgtest-virt-qemu: DBG:  +> /tmp/autopkgtest-qemu.7u_ps0bf/runcmd sh -ec cat >/tmp/autopkgtest.Fc1c2w/autopkgtest-reboot; chmod +x -- /tmp/autopkgtest.Fc1c2w/autopkgtest-reboot
autopkgtest-virt-qemu: DBG:  +>?
autopkgtest-virt-qemu: DBG:  +<?
autopkgtest: DBG: got reply from testbed: ok
autopkgtest: DBG: testbed command ['chmod', '-R', '0755', '--', '/tmp/autopkgtest.Fc1c2w/autopkgtest-reboot'], kind short, sout raw, serr pipe, env []
autopkgtest: DBG: testbed command exited with code 0
autopkgtest: DBG: testbed command ['ln', '-fns', '/tmp/autopkgtest.Fc1c2w/autopkgtest-reboot', '/tmp/autopkgtest-reboot'], kind short, sout raw, serr pipe, env []
autopkgtest: DBG: testbed command exited with code 0
autopkgtest: DBG: testbed command ['ln', '-fns', '/tmp/autopkgtest.Fc1c2w/autopkgtest-reboot', '/sbin/autopkgtest-reboot'], kind short, sout raw, serr pipe, env []
autopkgtest: DBG: testbed command exited with code 0
autopkgtest: DBG: testbed command ['mkdir', '-p', '/tmp/autopkgtest.Fc1c2w'], kind short, sout raw, serr pipe, env []
autopkgtest: DBG: testbed command exited with code 0
autopkgtest: DBG: sending command to testbed: copydown /usr/share/autopkgtest/lib/in-testbed/reboot-prepare.sh /tmp/autopkgtest.Fc1c2w/autopkgtest-reboot-prepare
autopkgtest-virt-qemu: DBG: executing copydown /usr/share/autopkgtest/lib/in-testbed/reboot-prepare.sh /tmp/autopkgtest.Fc1c2w/autopkgtest-reboot-prepare
autopkgtest-virt-qemu: DBG: ['cmdls', "(['cat'], ['/tmp/autopkgtest-qemu.7u_ps0bf/runcmd', 'sh', '-ec', 'cat >/tmp/autopkgtest.Fc1c2w/autopkgtest-reboot-prepare; chmod +x -- /tmp/autopkgtest.Fc1c2w/autopkgtest-reboot-prepare'])"]
autopkgtest-virt-qemu: DBG: ['srcstdin', "<_io.BufferedReader name='/usr/share/autopkgtest/lib/in-testbed/reboot-prepare.sh'>", 'deststdout', "<_io.BufferedReader name='/dev/null'>", 'devnull_read', <_io.BufferedReader name='/dev/null'>]
autopkgtest-virt-qemu: DBG:  +< cat
autopkgtest-virt-qemu: DBG:  +> /tmp/autopkgtest-qemu.7u_ps0bf/runcmd sh -ec cat >/tmp/autopkgtest.Fc1c2w/autopkgtest-reboot-prepare; chmod +x -- /tmp/autopkgtest.Fc1c2w/autopkgtest-reboot-prepare
autopkgtest-virt-qemu: DBG:  +>?
autopkgtest-virt-qemu: DBG:  +<?
autopkgtest: DBG: got reply from testbed: ok
autopkgtest: DBG: testbed command ['chmod', '-R', '0755', '--', '/tmp/autopkgtest.Fc1c2w/autopkgtest-reboot-prepare'], kind short, sout raw, serr pipe, env []
autopkgtest: DBG: testbed command exited with code 0
autopkgtest: DBG: testbed command ['ln', '-fns', '/tmp/autopkgtest.Fc1c2w/autopkgtest-reboot-prepare', '/tmp/autopkgtest-reboot-prepare'], kind short, sout raw, serr pipe, env []
autopkgtest: DBG: testbed command exited with code 0
autopkgtest: DBG: testbed command ['uname', '-srv'], kind short, sout pipe, serr pipe, env []
autopkgtest: DBG: testbed command exited with code 0
autopkgtest [00:58:38]: testbed running kernel: Linux 5.11.0-1030-generic #34 SMP Fri Mar 11 15:27:17 CST 2022
autopkgtest: DBG: testbed command ['sh', '-c', 'nproc; cat /proc/cpuinfo 2>/dev/null || true'], kind short, sout pipe, serr pipe, env []
autopkgtest: DBG: testbed command exited with code 0
autopkgtest: DBG: Binaries: initialising
autopkgtest [00:58:39]: @@@@@@@@@@@@@@@@@@@@ source /home/minami/Documents/openkylin-riscv/src/libvpx_1.12.0-ok1.dsc
autopkgtest: DBG: blame += /home/minami/Documents/openkylin-riscv/src/libvpx_1.12.0-ok1.dsc
autopkgtest: DBG: testbed reset: modified=False, deps_installed=[], deps_new=[]
autopkgtest: DBG: testbed command ['mkdir', '-p', '/tmp/autopkgtest.Fc1c2w'], kind short, sout raw, serr pipe, env []
autopkgtest: DBG: testbed command exited with code 0
autopkgtest: DBG: sending command to testbed: copydown /home/minami/Documents/openkylin-riscv/src/libvpx_1.12.0-ok1.dsc /tmp/autopkgtest.Fc1c2w/libvpx_1.12.0-ok1.dsc
autopkgtest-virt-qemu: DBG: executing copydown /home/minami/Documents/openkylin-riscv/src/libvpx_1.12.0-ok1.dsc /tmp/autopkgtest.Fc1c2w/libvpx_1.12.0-ok1.dsc
autopkgtest-virt-qemu: DBG: ['cmdls', "(['cat'], ['/tmp/autopkgtest-qemu.7u_ps0bf/runcmd', 'sh', '-ec', 'cat >/tmp/autopkgtest.Fc1c2w/libvpx_1.12.0-ok1.dsc'])"]
autopkgtest-virt-qemu: DBG: ['srcstdin', "<_io.BufferedReader name='/home/minami/Documents/openkylin-riscv/src/libvpx_1.12.0-ok1.dsc'>", 'deststdout', "<_io.BufferedReader name='/dev/null'>", 'devnull_read', <_io.BufferedReader name='/dev/null'>]
autopkgtest-virt-qemu: DBG:  +< cat
autopkgtest-virt-qemu: DBG:  +> /tmp/autopkgtest-qemu.7u_ps0bf/runcmd sh -ec cat >/tmp/autopkgtest.Fc1c2w/libvpx_1.12.0-ok1.dsc
autopkgtest-virt-qemu: DBG:  +>?
autopkgtest-virt-qemu: DBG:  +<?
autopkgtest: DBG: got reply from testbed: ok
autopkgtest: DBG: testbed command ['chown', '-R', 'openkylin', '--', '/tmp/autopkgtest.Fc1c2w/libvpx_1.12.0-ok1.dsc'], kind short, sout raw, serr pipe, env []
autopkgtest: DBG: testbed command exited with code 0
autopkgtest: DBG: testbed command ['mkdir', '-p', '/tmp/autopkgtest.Fc1c2w'], kind short, sout raw, serr pipe, env []
autopkgtest: DBG: testbed command exited with code 0
autopkgtest: DBG: sending command to testbed: copydown /home/minami/Documents/openkylin-riscv/src/libvpx_1.12.0.orig.tar.gz /tmp/autopkgtest.Fc1c2w/libvpx_1.12.0.orig.tar.gz
autopkgtest-virt-qemu: DBG: executing copydown /home/minami/Documents/openkylin-riscv/src/libvpx_1.12.0.orig.tar.gz /tmp/autopkgtest.Fc1c2w/libvpx_1.12.0.orig.tar.gz
autopkgtest-virt-qemu: DBG: ['cmdls', "(['cat'], ['/tmp/autopkgtest-qemu.7u_ps0bf/runcmd', 'sh', '-ec', 'cat >/tmp/autopkgtest.Fc1c2w/libvpx_1.12.0.orig.tar.gz'])"]
autopkgtest-virt-qemu: DBG: ['srcstdin', "<_io.BufferedReader name='/home/minami/Documents/openkylin-riscv/src/libvpx_1.12.0.orig.tar.gz'>", 'deststdout', "<_io.BufferedReader name='/dev/null'>", 'devnull_read', <_io.BufferedReader name='/dev/null'>]
autopkgtest-virt-qemu: DBG:  +< cat
autopkgtest-virt-qemu: DBG:  +> /tmp/autopkgtest-qemu.7u_ps0bf/runcmd sh -ec cat >/tmp/autopkgtest.Fc1c2w/libvpx_1.12.0.orig.tar.gz
autopkgtest-virt-qemu: DBG:  +>?
autopkgtest-virt-qemu: DBG:  +<?
autopkgtest: DBG: got reply from testbed: ok
autopkgtest: DBG: testbed command ['chown', '-R', 'openkylin', '--', '/tmp/autopkgtest.Fc1c2w/libvpx_1.12.0.orig.tar.gz'], kind short, sout raw, serr pipe, env []
autopkgtest: DBG: testbed command exited with code 0
autopkgtest: DBG: testbed command ['mkdir', '-p', '/tmp/autopkgtest.Fc1c2w'], kind short, sout raw, serr pipe, env []
autopkgtest: DBG: testbed command exited with code 0
autopkgtest: DBG: sending command to testbed: copydown /home/minami/Documents/openkylin-riscv/src/libvpx_1.12.0-ok1.debian.tar.xz /tmp/autopkgtest.Fc1c2w/libvpx_1.12.0-ok1.debian.tar.xz
autopkgtest-virt-qemu: DBG: executing copydown /home/minami/Documents/openkylin-riscv/src/libvpx_1.12.0-ok1.debian.tar.xz /tmp/autopkgtest.Fc1c2w/libvpx_1.12.0-ok1.debian.tar.xz
autopkgtest-virt-qemu: DBG: ['cmdls', "(['cat'], ['/tmp/autopkgtest-qemu.7u_ps0bf/runcmd', 'sh', '-ec', 'cat >/tmp/autopkgtest.Fc1c2w/libvpx_1.12.0-ok1.debian.tar.xz'])"]
autopkgtest-virt-qemu: DBG: ['srcstdin', "<_io.BufferedReader name='/home/minami/Documents/openkylin-riscv/src/libvpx_1.12.0-ok1.debian.tar.xz'>", 'deststdout', "<_io.BufferedReader name='/dev/null'>", 'devnull_read', <_io.BufferedReader name='/dev/null'>]
autopkgtest-virt-qemu: DBG:  +< cat
autopkgtest-virt-qemu: DBG:  +> /tmp/autopkgtest-qemu.7u_ps0bf/runcmd sh -ec cat >/tmp/autopkgtest.Fc1c2w/libvpx_1.12.0-ok1.debian.tar.xz
autopkgtest-virt-qemu: DBG:  +>?
autopkgtest-virt-qemu: DBG:  +<?
autopkgtest: DBG: got reply from testbed: ok
autopkgtest: DBG: testbed command ['chown', '-R', 'openkylin', '--', '/tmp/autopkgtest.Fc1c2w/libvpx_1.12.0-ok1.debian.tar.xz'], kind short, sout raw, serr pipe, env []
autopkgtest: DBG: testbed command exited with code 0
autopkgtest: DBG: install_deps: deps_new=[]
autopkgtest: DBG: testbed command ['sh', '-ec', 'command -v dpkg-source'], kind short, sout pipe, serr pipe, env []
autopkgtest: DBG: testbed command exited with code 0
autopkgtest: DBG: testbed command ['sh', '-ec', 'su --shell=/bin/sh openkylin -c \'set -e; exec 3>&1 >&2; set -x; cd /; builddir=$(mktemp -d /tmp/autopkgtest.Fc1c2w/build.XXX); cd $builddir; dpkg-source -x "/tmp/autopkgtest.Fc1c2w/libvpx_1.12.0-ok1.dsc" src; chmod -R a+rX .; cd [a-z0-9]*/.; pwd >&3; sed -n "1 {s/).*//; s/ (/\\n/; p}" debian/changelog >&3\''], kind build, sout pipe, serr raw, env []
+ cd /
+ mktemp -d /tmp/autopkgtest.Fc1c2w/build.XXX
+ builddir=/tmp/autopkgtest.Fc1c2w/build.pG4
+ cd /tmp/autopkgtest.Fc1c2w/build.pG4
+ dpkg-source -x /tmp/autopkgtest.Fc1c2w/libvpx_1.12.0-ok1.dsc src
gpgv: unknown type of key resource 'trustedkeys.kbx'
gpgv: keyblock resource '/tmp/dpkg-verify-sig.6ERBGVCp/trustedkeys.kbx': General error
gpgv: Signature made Fri 06 Jan 2023 06:25:23 AM UTC
gpgv:                using RSA key 64FBB79F5EAE64D792E94CFE0716F00F842CD274
gpgv: Can't check signature: No public key
dpkg-source: warning: cannot verify signature /tmp/autopkgtest.Fc1c2w/libvpx_1.12.0-ok1.dsc
dpkg-source: info: extracting libvpx in src
dpkg-source: info: unpacking libvpx_1.12.0.orig.tar.gz
dpkg-source: info: unpacking libvpx_1.12.0-ok1.debian.tar.xz
dpkg-source: info: using patch list from debian/patches/series
dpkg-source: info: applying 0001-Relax-ABI-check.patch
+ chmod -R a+rX .
+ cd src/.
+ pwd
+ sed -n 1 {s/).*//; s/ (/\n/; p} debian/changelog
autopkgtest: DBG: testbed command exited with code 0
autopkgtest [00:58:54]: testing package libvpx version 1.12.0-ok1
autopkgtest: DBG: sending command to testbed: copyup /tmp/autopkgtest.Fc1c2w/build.pG4/src/debian/ /home/minami/Documents/openkylin-riscv/test/libvpx/pkg/debian/
autopkgtest-virt-qemu: DBG: executing copyup /tmp/autopkgtest.Fc1c2w/build.pG4/src/debian/ /home/minami/Documents/openkylin-riscv/test/libvpx/pkg/debian/
autopkgtest-virt-qemu: DBG: ['cmdls', "(['/tmp/autopkgtest-qemu.7u_ps0bf/runcmd', 'sh', '-ec', 'cd /tmp/autopkgtest.Fc1c2w/build.pG4/src/debian/; tar --warning=none -c . -f -'], ['tar', '--directory', '/home/minami/Documents/openkylin-riscv/test/libvpx/pkg/debian/', '--warning=none', '--preserve-permissions', '--extract', '--no-same-owner', '-f', '-'])"]
autopkgtest-virt-qemu: DBG: ['srcstdin', "<_io.BufferedReader name='/dev/null'>", 'deststdout', "<_io.BufferedReader name='/dev/null'>", 'devnull_read', <_io.BufferedReader name='/dev/null'>]
autopkgtest-virt-qemu: DBG:  +< /tmp/autopkgtest-qemu.7u_ps0bf/runcmd sh -ec cd /tmp/autopkgtest.Fc1c2w/build.pG4/src/debian/; tar --warning=none -c . -f -
autopkgtest-virt-qemu: DBG:  +> tar --directory /home/minami/Documents/openkylin-riscv/test/libvpx/pkg/debian/ --warning=none --preserve-permissions --extract --no-same-owner -f -
autopkgtest-virt-qemu: DBG:  +>?
autopkgtest-virt-qemu: DBG:  +<?
autopkgtest: DBG: got reply from testbed: ok
autopkgtest: DBG: processing dependency ffmpeg
autopkgtest: DBG: processing dependency vpx-tools
autopkgtest: DBG: marked alternatives ['vpx-tools'] as a synthesised dependency
autopkgtest: DBG: Test defined: name encode-testimage path debian/tests/encode-testimage command "None" restrictions ['allow-stderr'] features [] depends ['ffmpeg', 'vpx-tools'] 
autopkgtest [00:58:54]: build not needed
autopkgtest: DBG: sending command to testbed: copyup /tmp/autopkgtest.Fc1c2w/build.pG4/src/ /home/minami/Documents/openkylin-riscv/test/libvpx/tests-tree/
autopkgtest-virt-qemu: DBG: executing copyup /tmp/autopkgtest.Fc1c2w/build.pG4/src/ /home/minami/Documents/openkylin-riscv/test/libvpx/tests-tree/
autopkgtest-virt-qemu: DBG: ['cmdls', "(['/tmp/autopkgtest-qemu.7u_ps0bf/runcmd', 'sh', '-ec', 'cd /tmp/autopkgtest.Fc1c2w/build.pG4/src/; tar --warning=none -c . -f -'], ['tar', '--directory', '/home/minami/Documents/openkylin-riscv/test/libvpx/tests-tree/', '--warning=none', '--preserve-permissions', '--extract', '--no-same-owner', '-f', '-'])"]
autopkgtest-virt-qemu: DBG: ['srcstdin', "<_io.BufferedReader name='/dev/null'>", 'deststdout', "<_io.BufferedReader name='/dev/null'>", 'devnull_read', <_io.BufferedReader name='/dev/null'>]
autopkgtest-virt-qemu: DBG:  +< /tmp/autopkgtest-qemu.7u_ps0bf/runcmd sh -ec cd /tmp/autopkgtest.Fc1c2w/build.pG4/src/; tar --warning=none -c . -f -
autopkgtest-virt-qemu: DBG:  +> tar --directory /home/minami/Documents/openkylin-riscv/test/libvpx/tests-tree/ --warning=none --preserve-permissions --extract --no-same-owner -f -
autopkgtest-virt-qemu: DBG:  +>?
autopkgtest-virt-qemu: DBG:  +<?
autopkgtest: DBG: got reply from testbed: ok
autopkgtest: DBG: processing dependency ffmpeg
autopkgtest: DBG: processing dependency vpx-tools
autopkgtest: DBG: marked alternatives ['vpx-tools'] as a synthesised dependency
autopkgtest: DBG: Test defined: name encode-testimage path debian/tests/encode-testimage command "None" restrictions ['allow-stderr'] features [] depends ['ffmpeg', 'vpx-tools'] 
autopkgtest [00:58:58]: test encode-testimage: preparing testbed
autopkgtest: DBG: testbed reset: modified=False, deps_installed=[], deps_new=['ffmpeg', 'vpx-tools']
autopkgtest: DBG: Binaries: no registered binaries, not publishing anything
autopkgtest: DBG: install_deps: deps_new=['ffmpeg', 'vpx-tools']
autopkgtest: DBG: install-deps: satisfying ffmpeg, vpx-tools
autopkgtest: DBG: install-deps: architecture resolved: ffmpeg, vpx-tools
autopkgtest: DBG: testbed command ['test', '-w', '/var/lib/dpkg/status'], kind short, sout raw, serr raw, env []
autopkgtest: DBG: testbed command exited with code 0
autopkgtest: DBG: can use apt-get on testbed: True
autopkgtest: DBG: testbed command ['mkdir', '-p', '/tmp/autopkgtest.Fc1c2w'], kind short, sout raw, serr pipe, env []
autopkgtest: DBG: testbed command exited with code 0
autopkgtest: DBG: sending command to testbed: copydown /home/minami/Documents/openkylin-riscv/test/libvpx/1-autopkgtest-satdep.deb /tmp/autopkgtest.Fc1c2w/1-autopkgtest-satdep.deb
autopkgtest-virt-qemu: DBG: executing copydown /home/minami/Documents/openkylin-riscv/test/libvpx/1-autopkgtest-satdep.deb /tmp/autopkgtest.Fc1c2w/1-autopkgtest-satdep.deb
autopkgtest-virt-qemu: DBG: ['cmdls', "(['cat'], ['/tmp/autopkgtest-qemu.7u_ps0bf/runcmd', 'sh', '-ec', 'cat >/tmp/autopkgtest.Fc1c2w/1-autopkgtest-satdep.deb'])"]
autopkgtest-virt-qemu: DBG: ['srcstdin', "<_io.BufferedReader name='/home/minami/Documents/openkylin-riscv/test/libvpx/1-autopkgtest-satdep.deb'>", 'deststdout', "<_io.BufferedReader name='/dev/null'>", 'devnull_read', <_io.BufferedReader name='/dev/null'>]
autopkgtest-virt-qemu: DBG:  +< cat
autopkgtest-virt-qemu: DBG:  +> /tmp/autopkgtest-qemu.7u_ps0bf/runcmd sh -ec cat >/tmp/autopkgtest.Fc1c2w/1-autopkgtest-satdep.deb
autopkgtest-virt-qemu: DBG:  +>?
autopkgtest-virt-qemu: DBG:  +<?
autopkgtest: DBG: got reply from testbed: ok
autopkgtest: DBG: testbed command ['chown', '-R', 'openkylin', '--', '/tmp/autopkgtest.Fc1c2w/1-autopkgtest-satdep.deb'], kind short, sout raw, serr pipe, env []
autopkgtest: DBG: testbed command exited with code 0
autopkgtest: DBG: testbed command ['dpkg', '--unpack', '/tmp/autopkgtest.Fc1c2w/1-autopkgtest-satdep.deb'], kind short, sout pipe, serr pipe, env []
autopkgtest: DBG: testbed command exited with code 0
autopkgtest: DBG: testbed command ['/bin/sh', '-ec', ' apt-get install --assume-yes --fix-broken -o APT::Status-Fd=3 -o APT::Install-Recommends=false -o Dpkg::Options::=--force-confnew -o Debug::pkgProblemResolver=true 3>&2 2>&1'], kind install, sout raw, serr pipe, env ['DEBIAN_FRONTEND=noninteractive', 'APT_LISTBUGS_FRONTEND=none', 'APT_LISTCHANGES_FRONTEND=none']
Reading package lists...
Building dependency tree...
Reading state information...
Correcting dependencies...Starting pkgProblemResolver with broken count: 0
Starting 2 pkgProblemResolver with broken count: 0
Done
 Done
Starting pkgProblemResolver with broken count: 0
Starting 2 pkgProblemResolver with broken count: 0
Done
The following package was automatically installed and is no longer required:
  libmpdec2
Use 'apt autoremove' to remove it.
The following additional packages will be installed:
  ffmpeg libvpx7 vpx-tools
Suggested packages:
  ffmpeg-doc
The following NEW packages will be installed:
  ffmpeg libvpx7 vpx-tools
0 upgraded, 3 newly installed, 0 to remove and 3 not upgraded.
1 not fully installed or removed.
Need to get 2,459 kB of archives.
After this operation, 3,991 kB of additional disk space will be used.
Get:1 http://archive.build.openkylin.top/openkylin yangtze-proposed/main riscv64 ffmpeg riscv64 7:4.2.2-ok2 [1,465 kB]
Get:2 http://archive.build.openkylin.top/openkylin yangtze/main riscv64 libvpx7 riscv64 1.12.0-ok1 [833 kB]
Get:3 http://archive.build.openkylin.top/openkylin yangtze/main riscv64 vpx-tools riscv64 1.12.0-ok1 [162 kB]
Fetched 2,459 kB in 1s (3,032 kB/s)
Selecting previously unselected package ffmpeg.
(Reading database ... (Reading database ... 5%(Reading database ... 10%(Reading database ... 15%(Reading database ... 20%(Reading database ... 25%(Reading database ... 30%(Reading database ... 35%(Reading database ... 40%(Reading database ... 45%(Reading database ... 50%(Reading database ... 55%(Reading database ... 60%(Reading database ... 65%(Reading database ... 70%(Reading database ... 75%(Reading database ... 80%(Reading database ... 85%(Reading database ... 90%(Reading database ... 95%(Reading database ... 100%(Reading database ... 156004 files and directories currently installed.)
Preparing to unpack .../ffmpeg_7%3a4.2.2-ok2_riscv64.deb ...
Unpacking ffmpeg (7:4.2.2-ok2) ...
Selecting previously unselected package libvpx7:riscv64.
Preparing to unpack .../libvpx7_1.12.0-ok1_riscv64.deb ...
Unpacking libvpx7:riscv64 (1.12.0-ok1) ...
Selecting previously unselected package vpx-tools.
Preparing to unpack .../vpx-tools_1.12.0-ok1_riscv64.deb ...
Unpacking vpx-tools (1.12.0-ok1) ...
Setting up libvpx7:riscv64 (1.12.0-ok1) ...
Setting up ffmpeg (7:4.2.2-ok2) ...
Setting up vpx-tools (1.12.0-ok1) ...
Setting up autopkgtest-satdep (0) ...
Processing triggers for man-db (2.9.1-ok3) ...
Processing triggers for libc-bin (2.36-ok2) ...
autopkgtest: DBG: testbed command exited with code 0
autopkgtest: DBG: testbed command ['dpkg-query', '--show', '-f', '${Status}', 'vpx-tools'], kind short, sout pipe, serr pipe, env []
autopkgtest: DBG: testbed command exited with code 0
autopkgtest: DBG: testbed command ['dpkg', '--status', 'autopkgtest-satdep'], kind short, sout pipe, serr pipe, env []
autopkgtest: DBG: testbed command exited with code 0
autopkgtest: DBG: testbed command ['apt-get', '--simulate', '--quiet', '-o', 'APT::Get::Show-User-Simulation-Note=False', '--auto-remove', 'purge', 'autopkgtest-satdep'], kind short, sout pipe, serr pipe, env []
autopkgtest: DBG: testbed command exited with code 0
autopkgtest: DBG: Marking test dependencies as manually installed: ffmpeg libmpdec2 vpx-tools libvpx7
autopkgtest: DBG: testbed command ['apt-mark', 'manual', '-qq', 'ffmpeg', 'libmpdec2', 'vpx-tools', 'libvpx7'], kind short, sout raw, serr pipe, env []
autopkgtest: DBG: testbed command exited with code 0
autopkgtest: DBG: testbed command ['dpkg', '--purge', 'autopkgtest-satdep'], kind short, sout raw, serr raw, env []
(Reading database ... 156049 files and directories currently installed.)
Removing autopkgtest-satdep (0) ...
autopkgtest: DBG: testbed command exited with code 0
autopkgtest: DBG: testbed command ['sh', '-ec', 'command -v dpkg-query'], kind short, sout pipe, serr pipe, env []
autopkgtest: DBG: testbed command exited with code 0
autopkgtest: DBG: testbed command ['sh', '-ec', "dpkg-query --show -f '${Package}\\t${Version}\\n' > /tmp/autopkgtest.Fc1c2w/encode-testimage-packages.all"], kind short, sout raw, serr pipe, env []
autopkgtest: DBG: testbed command exited with code 0
autopkgtest: DBG: sending command to testbed: copyup /tmp/autopkgtest.Fc1c2w/encode-testimage-packages.all /home/minami/Documents/openkylin-riscv/test/libvpx/encode-testimage-packages.all
autopkgtest-virt-qemu: DBG: executing copyup /tmp/autopkgtest.Fc1c2w/encode-testimage-packages.all /home/minami/Documents/openkylin-riscv/test/libvpx/encode-testimage-packages.all
autopkgtest-virt-qemu: DBG: ['cmdls', "(['/tmp/autopkgtest-qemu.7u_ps0bf/runcmd', 'sh', '-ec', 'cat </tmp/autopkgtest.Fc1c2w/encode-testimage-packages.all'], ['cat'])"]
autopkgtest-virt-qemu: DBG: ['srcstdin', "<_io.BufferedReader name='/dev/null'>", 'deststdout', "<_io.BufferedWriter name='/home/minami/Documents/openkylin-riscv/test/libvpx/encode-testimage-packages.all'>", 'devnull_read', <_io.BufferedReader name='/dev/null'>]
autopkgtest-virt-qemu: DBG:  +< /tmp/autopkgtest-qemu.7u_ps0bf/runcmd sh -ec cat </tmp/autopkgtest.Fc1c2w/encode-testimage-packages.all
autopkgtest-virt-qemu: DBG:  +> cat
autopkgtest-virt-qemu: DBG:  +>?
autopkgtest-virt-qemu: DBG:  +<?
autopkgtest: DBG: got reply from testbed: ok
autopkgtest: DBG: testbed command ['test', '-e', '/tmp/autopkgtest.Fc1c2w/build.pG4/src'], kind short, sout raw, serr raw, env []
autopkgtest: DBG: testbed command exited with code 0
autopkgtest: DBG: copydown: tb path /tmp/autopkgtest.Fc1c2w/build.pG4/src already exists
autopkgtest [00:59:31]: test encode-testimage: [-----------------------
autopkgtest: DBG: testbed command ['su', '-s', '/bin/bash', 'openkylin', '-c', 'set -e; export USER=`id -nu`; . /etc/profile >/dev/null 2>&1 || true;  . ~/.profile >/dev/null 2>&1 || true; buildtree="/tmp/autopkgtest.Fc1c2w/build.pG4/src"; mkdir -p -m 1777 -- "/tmp/autopkgtest.Fc1c2w/encode-testimage-artifacts"; export AUTOPKGTEST_ARTIFACTS="/tmp/autopkgtest.Fc1c2w/encode-testimage-artifacts"; export ADT_ARTIFACTS="$AUTOPKGTEST_ARTIFACTS"; mkdir -p -m 755 "/tmp/autopkgtest.Fc1c2w/autopkgtest_tmp"; export AUTOPKGTEST_TMP="/tmp/autopkgtest.Fc1c2w/autopkgtest_tmp"; export ADTTMP="$AUTOPKGTEST_TMP"; export DEBIAN_FRONTEND=noninteractive; export LANG=C.UTF-8; export DEB_BUILD_OPTIONS=parallel=8; unset LANGUAGE LC_CTYPE LC_NUMERIC LC_TIME LC_COLLATE   LC_MONETARY LC_MESSAGES LC_PAPER LC_NAME LC_ADDRESS   LC_TELEPHONE LC_MEASUREMENT LC_IDENTIFICATION LC_ALL;cd "$buildtree"; chmod +x /tmp/autopkgtest.Fc1c2w/build.pG4/src/debian/tests/encode-testimage; exec /tmp/autopkgtest.Fc1c2w/wrapper.sh --script-pid-file=/tmp/autopkgtest_script_pid --stderr=/tmp/autopkgtest.Fc1c2w/encode-testimage-stderr --stdout=/tmp/autopkgtest.Fc1c2w/encode-testimage-stdout -- /tmp/autopkgtest.Fc1c2w/build.pG4/src/debian/tests/encode-testimage ;'], kind test, sout raw, serr raw, env []
ffmpeg version 4.2.2-ok2 Copyright (c) 2000-2019 the FFmpeg developers
  built with gcc 9 (Ubuntu 9.3.0-ok4)
  configuration: --prefix=/usr --extra-version=ok2 --toolchain=hardened --libdir=/usr/lib/riscv64-linux-gnu --incdir=/usr/include/riscv64-linux-gnu --arch=riscv64 --enable-gpl --disable-stripping --enable-avresample --disable-filter=resample --enable-avisynth --enable-gnutls --enable-ladspa --enable-libaom --enable-libass --enable-libbluray --enable-libbs2b --enable-libcaca --enable-libcdio --enable-libcodec2 --enable-libflite --enable-libfontconfig --enable-libfreetype --enable-libfribidi --enable-libgme --enable-libgsm --enable-libjack --enable-libmp3lame --enable-libmysofa --enable-libopenjpeg --enable-libopenmpt --enable-libopus --enable-libpulse --enable-librsvg --enable-librubberband --enable-libshine --enable-libsnappy --enable-libsoxr --enable-libspeex --enable-libssh --enable-libtheora --enable-libtwolame --enable-libvidstab --enable-libvorbis --enable-libvpx --enable-libwavpack --enable-libwebp --enable-libx265 --enable-libxml2 --enable-libxvid --enable-libzmq --enable-libzvbi --enable-lv2 --enable-omx --enable-openal --enable-opencl --enable-opengl --enable-sdl2 --enable-libdc1394 --enable-libdrm --enable-libiec61883 --enable-chromaprint --enable-frei0r --enable-libx264 --enable-shared
  libavutil      56. 31.100 / 56. 31.100
  libavcodec     58. 54.100 / 58. 54.100
  libavformat    58. 29.100 / 58. 29.100
  libavdevice    58.  8.100 / 58.  8.100
  libavfilter     7. 57.100 /  7. 57.100
  libavresample   4.  0.  0 /  4.  0.  0
  libswscale      5.  5.100 /  5.  5.100
  libswresample   3.  5.100 /  3.  5.100
  libpostproc    55.  5.100 / 55.  5.100
Stream mapping:
  testsrc -> Stream #0:0 (wrapped_avframe)
Press [q] to stop, [?] for help
Output #0, yuv4mpegpipe, to 'in.y4m':
  Metadata:
    encoder         : Lavf58.29.100
    Stream #0:0: Video: wrapped_avframe, yuv420p, 320x240 [SAR 1:1 DAR 4:3], q=2-31, 200 kb/s, 25 fps, 25 tbn, 25 tbc (default)
    Metadata:
      encoder         : Lavc58.54.100 wrapped_avframe
frame=   51 fps=0.0 q=-0.0 size=    5632kB time=00:00:02.04 bitrate=22616.3kbits/s speed=4.06x    frame=  122 fps=121 q=-0.0 size=   13568kB time=00:00:04.88 bitrate=22776.4kbits/s speed=4.84x    frame=  192 fps=127 q=-0.0 size=   21504kB time=00:00:07.68 bitrate=22937.6kbits/s speed=5.08x    frame=  250 fps=128 q=-0.0 Lsize=   28127kB time=00:00:10.00 bitrate=23041.2kbits/s speed=5.12x    
video:131kB audio:0kB subtitle:0kB other streams:0kB global headers:0kB muxing overhead: 21393.699219%
Pass 1/2 frame    1/0          0B       0 us 0.00 fpm [ETA  unknown] [KPass 1/2 frame    2/1        208B   51084 us 39.15 fps [ETA  0:00:12] [KPass 1/2 frame    3/2        416B   74550 us 40.24 fps [ETA  0:00:12] [KPass 1/2 frame    4/3        624B   98143 us 40.76 fps [ETA  0:00:11] [KPass 1/2 frame    5/4        832B  117456 us 42.57 fps [ETA  0:00:10] [KPass 1/2 frame    6/5       1040B  141913 us 42.28 fps [ETA  0:00:09] [KPass 1/2 frame    7/6       1248B  159589 us 43.86 fps [ETA  0:00:09] [KPass 1/2 frame    8/7       1456B  179772 us 44.50 fps [ETA  0:00:08] [KPass 1/2 frame    9/8       1664B  197769 us 45.51 fps [ETA  0:00:08] [KPass 1/2 frame   10/9       1872B  220090 us 45.44 fps [ETA  0:00:07] [KPass 1/2 frame   11/10      2080B  239509 us 45.93 fps [ETA  0:00:07] [KPass 1/2 frame   12/11      2288B  257252 us 46.65 fps [ETA  0:00:07] [KPass 1/2 frame   13/12      2496B  275264 us 47.23 fps [ETA  0:00:06] [KPass 1/2 frame   14/13      2704B  293685 us 47.67 fps [ETA  0:00:06] [KPass 1/2 frame   15/14      2912B  312809 us 47.95 fps [ETA  0:00:06] [KPass 1/2 frame   16/15      3120B  332215 us 48.16 fps [ETA  0:00:06] [KPass 1/2 frame   17/16      3328B  350358 us 48.52 fps [ETA  0:00:05] [KPass 1/2 frame   18/17      3536B  368412 us 48.86 fps [ETA  0:00:05] [KPass 1/2 frame   19/18      3744B  388504 us 48.91 fps [ETA  0:00:05] [KPass 1/2 frame   20/19      3952B  407109 us 49.13 fps [ETA  0:00:05] [KPass 1/2 frame   21/20      4160B  425491 us 49.35 fps [ETA  0:00:05] [KPass 1/2 frame   22/21      4368B  443644 us 49.59 fps [ETA  0:00:05] [KPass 1/2 frame   23/22      4576B  463540 us 49.62 fps [ETA  0:00:05] [KPass 1/2 frame   24/23      4784B  482341 us 49.76 fps [ETA  0:00:05] [KPass 1/2 frame   25/24      4992B  500260 us 49.97 fps [ETA  0:00:05] [KPass 1/2 frame   26/25      5200B  517368 us 50.25 fps [ETA  0:00:05] [KPass 1/2 frame   27/26      5408B  536801 us 50.30 fps [ETA  0:00:04] [KPass 1/2 frame   28/27      5616B  559764 us 50.02 fps [ETA  0:00:04] [KPass 1/2 frame   29/28      5824B  578477 us 50.13 fps [ETA  0:00:04] [KPass 1/2 frame   30/29      6032B  596278 us 50.31 fps [ETA  0:00:04] [KPass 1/2 frame   31/30      6240B  617885 us 50.17 fps [ETA  0:00:04] [KPass 1/2 frame   32/31      6448B  641629 us 49.87 fps [ETA  0:00:04] [KPass 1/2 frame   33/32      6656B  660929 us 49.93 fps [ETA  0:00:04] [KPass 1/2 frame   34/33      6864B  682248 us 49.84 fps [ETA  0:00:04] [KPass 1/2 frame   35/34      7072B  707398 us 49.48 fps [ETA  0:00:04] [KPass 1/2 frame   36/35      7280B  731013 us 49.25 fps [ETA  0:00:04] [KPass 1/2 frame   37/36      7488B  756165 us 48.93 fps [ETA  0:00:04] [KPass 1/2 frame   38/37      7696B  784236 us 48.45 fps [ETA  0:00:04] [KPass 1/2 frame   39/38      7904B  810773 us 48.10 fps [ETA  0:00:04] [KPass 1/2 frame   40/39      8112B  834264 us 47.95 fps [ETA  0:00:04] [KPass 1/2 frame   41/40      8320B  853883 us 48.02 fps [ETA  0:00:04] [KPass 1/2 frame   42/41      8528B  874235 us 48.04 fps [ETA  0:00:04] [KPass 1/2 frame   43/42      8736B  896023 us 47.99 fps [ETA  0:00:04] [KPass 1/2 frame   44/43      8944B  914977 us 48.09 fps [ETA  0:00:04] [KPass 1/2 frame   45/44      9152B  933082 us 48.23 fps [ETA  0:00:04] [KPass 1/2 frame   46/45      9360B  952828 us 48.28 fps [ETA  0:00:04] [KPass 1/2 frame   47/46      9568B  976875 us 48.11 fps [ETA  0:00:04] [KPass 1/2 frame   48/47      9776B  996838 us 48.15 fps [ETA  0:00:04] [KPass 1/2 frame   49/48      9984B 1018818 us 48.09 fps [ETA  0:00:04] [KPass 1/2 frame   50/49     10192B 1037693 us 48.18 fps [ETA  0:00:04] [KPass 1/2 frame   51/50     10400B 1056818 us 48.26 fps [ETA  0:00:04] [KPass 1/2 frame   52/51     10608B 1077422 us 48.26 fps [ETA  0:00:04] [KPass 1/2 frame   53/52     10816B 1095662 us 48.37 fps [ETA  0:00:04] [KPass 1/2 frame   54/53     11024B 1114101 us 48.47 fps [ETA  0:00:04] [KPass 1/2 frame   55/54     11232B 1133176 us 48.54 fps [ETA  0:00:04] [KPass 1/2 frame   56/55     11440B 1152034 us 48.61 fps [ETA  0:00:04] [KPass 1/2 frame   57/56     11648B 1172408 us 48.62 fps [ETA  0:00:04] [KPass 1/2 frame   58/57     11856B 1190963 us 48.70 fps [ETA  0:00:04] [KPass 1/2 frame   59/58     12064B 1211004 us 48.72 fps [ETA  0:00:04] [KPass 1/2 frame   60/59     12272B 1229915 us 48.78 fps [ETA  0:00:04] [KPass 1/2 frame   61/60     12480B 1247729 us 48.89 fps [ETA  0:00:03] [KPass 1/2 frame   62/61     12688B 1267288 us 48.92 fps [ETA  0:00:03] [KPass 1/2 frame   63/62     12896B 1285678 us 49.00 fps [ETA  0:00:03] [KPass 1/2 frame   64/63     13104B 1304174 us 49.07 fps [ETA  0:00:03] [KPass 1/2 frame   65/64     13312B 1325414 us 49.04 fps [ETA  0:00:03] [KPass 1/2 frame   66/65     13520B 1344144 us 49.10 fps [ETA  0:00:03] [KPass 1/2 frame   67/66     13728B 1361995 us 49.19 fps [ETA  0:00:03] [KPass 1/2 frame   68/67     13936B 1380658 us 49.25 fps [ETA  0:00:03] [KPass 1/2 frame   69/68     14144B 1400228 us 49.28 fps [ETA  0:00:03] [KPass 1/2 frame   70/69     14352B 1418769 us 49.34 fps [ETA  0:00:03] [KPass 1/2 frame   71/70     14560B 1436209 us 49.44 fps [ETA  0:00:03] [KPass 1/2 frame   72/71     14768B 1454293 us 49.51 fps [ETA  0:00:03] [KPass 1/2 frame   73/72     14976B 1472789 us 49.57 fps [ETA  0:00:03] [KPass 1/2 frame   74/73     15184B 1490100 us 49.66 fps [ETA  0:00:03] [KPass 1/2 frame   75/74     15392B 1507798 us 49.74 fps [ETA  0:00:03] [KPass 1/2 frame   76/75     15600B 1525905 us 49.81 fps [ETA  0:00:03] [KPass 1/2 frame   77/76     15808B 1556285 us 49.48 fps [ETA  0:00:03] [KPass 1/2 frame   78/77     16016B 1576872 us 49.47 fps [ETA  0:00:03] [KPass 1/2 frame   79/78     16224B 1596155 us 49.49 fps [ETA  0:00:03] [KPass 1/2 frame   80/79     16432B 1614624 us 49.55 fps [ETA  0:00:03] [KPass 1/2 frame   81/80     16640B 1633077 us 49.60 fps [ETA  0:00:03] [KPass 1/2 frame   82/81     16848B 1650858 us 49.67 fps [ETA  0:00:03] [KPass 1/2 frame   83/82     17056B 1672424 us 49.63 fps [ETA  0:00:03] [KPass 1/2 frame   84/83     17264B 1691187 us 49.67 fps [ETA  0:00:03] [KPass 1/2 frame   85/84     17472B 1709733 us 49.72 fps [ETA  0:00:03] [KPass 1/2 frame   86/85     17680B 1730986 us 49.68 fps [ETA  0:00:03] [KPass 1/2 frame   87/86     17888B 1752376 us 49.65 fps [ETA  0:00:03] [KPass 1/2 frame   88/87     18096B 1772923 us 49.64 fps [ETA  0:00:03] [KPass 1/2 frame   89/88     18304B 1793069 us 49.64 fps [ETA  0:00:03] [KPass 1/2 frame   90/89     18512B 1814524 us 49.60 fps [ETA  0:00:03] [KPass 1/2 frame   91/90     18720B 1835340 us 49.58 fps [ETA  0:00:03] [KPass 1/2 frame   92/91     18928B 1855928 us 49.57 fps [ETA  0:00:03] [KPass 1/2 frame   93/92     19136B 1879914 us 49.47 fps [ETA  0:00:03] [KPass 1/2 frame   94/93     19344B 1901017 us 49.45 fps [ETA  0:00:03] [KPass 1/2 frame   95/94     19552B 1919402 us 49.49 fps [ETA  0:00:03] [KPass 1/2 frame   96/95     19760B 1936846 us 49.57 fps [ETA  0:00:03] [KPass 1/2 frame   97/96     19968B 1957152 us 49.56 fps [ETA  0:00:03] [KPass 1/2 frame   98/97     20176B 1976024 us 49.59 fps [ETA  0:00:03] [KPass 1/2 frame   99/98     20384B 1993641 us 49.66 fps [ETA  0:00:03] [KPass 1/2 frame  100/99     20592B 2015667 us 49.61 fps [ETA  0:00:03] [KPass 1/2 frame  101/100    20800B 2033441 us 49.67 fps [ETA  0:00:03] [KPass 1/2 frame  102/101    21008B 2058302 us 49.56 fps [ETA  0:00:03] [KPass 1/2 frame  103/102    21216B 2079731 us 49.53 fps [ETA  0:00:03] [KPass 1/2 frame  104/103    21424B 2101030 us 49.50 fps [ETA  0:00:02] [KPass 1/2 frame  105/104    21632B 2118655 us 49.56 fps [ETA  0:00:02] [KPass 1/2 frame  106/105    21840B 2139752 us 49.54 fps [ETA  0:00:02] [KPass 1/2 frame  107/106    22048B 2159850 us 49.54 fps [ETA  0:00:02] [KPass 1/2 frame  108/107    22256B 2178948 us 49.57 fps [ETA  0:00:02] [KPass 1/2 frame  109/108    22464B 2198416 us 49.58 fps [ETA  0:00:02] [KPass 1/2 frame  110/109    22672B 2217802 us 49.60 fps [ETA  0:00:02] [KPass 1/2 frame  111/110    22880B 2236975 us 49.62 fps [ETA  0:00:02] [KPass 1/2 frame  112/111    23088B 2254433 us 49.68 fps [ETA  0:00:02] [KPass 1/2 frame  113/112    23296B 2272417 us 49.73 fps [ETA  0:00:02] [KPass 1/2 frame  114/113    23504B 2293696 us 49.70 fps [ETA  0:00:02] [KPass 1/2 frame  115/114    23712B 2311823 us 49.74 fps [ETA  0:00:02] [KPass 1/2 frame  116/115    23920B 2330432 us 49.78 fps [ETA  0:00:02] [KPass 1/2 frame  117/116    24128B 2350682 us 49.77 fps [ETA  0:00:02] [KPass 1/2 frame  118/117    24336B 2371879 us 49.75 fps [ETA  0:00:02] [KPass 1/2 frame  119/118    24544B 2391467 us 49.76 fps [ETA  0:00:02] [KPass 1/2 frame  120/119    24752B 2410185 us 49.79 fps [ETA  0:00:02] [KPass 1/2 frame  121/120    24960B 2428501 us 49.82 fps [ETA  0:00:02] [KPass 1/2 frame  122/121    25168B 2446899 us 49.86 fps [ETA  0:00:02] [KPass 1/2 frame  123/122    25376B 2464790 us 49.90 fps [ETA  0:00:02] [KPass 1/2 frame  124/123    25584B 2486328 us 49.87 fps [ETA  0:00:02] [KPass 1/2 frame  125/124    25792B 2504733 us 49.91 fps [ETA  0:00:02] [KPass 1/2 frame  126/125    26000B 2523328 us 49.93 fps [ETA  0:00:02] [KPass 1/2 frame  127/126    26208B 2545502 us 49.89 fps [ETA  0:00:02] [KPass 1/2 frame  128/127    26416B 2563870 us 49.92 fps [ETA  0:00:02] [KPass 1/2 frame  129/128    26624B 2582004 us 49.96 fps [ETA  0:00:02] [KPass 1/2 frame  130/129    26832B 2599548 us 50.01 fps [ETA  0:00:02] [KPass 1/2 frame  131/130    27040B 2617374 us 50.05 fps [ETA  0:00:02] [KPass 1/2 frame  132/131    27248B 2637077 us 50.06 fps [ETA  0:00:02] [KPass 1/2 frame  133/132    27456B 2654190 us 50.11 fps [ETA  0:00:02] [KPass 1/2 frame  134/133    27664B 2674863 us 50.10 fps [ETA  0:00:02] [KPass 1/2 frame  135/134    27872B 2691933 us 50.15 fps [ETA  0:00:02] [KPass 1/2 frame  136/135    28080B 2709497 us 50.19 fps [ETA  0:00:02] [KPass 1/2 frame  137/136    28288B 2727126 us 50.24 fps [ETA  0:00:02] [KPass 1/2 frame  138/137    28496B 2745337 us 50.27 fps [ETA  0:00:02] [KPass 1/2 frame  139/138    28704B 2765255 us 50.27 fps [ETA  0:00:02] [KPass 1/2 frame  140/139    28912B 2786295 us 50.25 fps [ETA  0:00:02] [KPass 1/2 frame  141/140    29120B 2808542 us 50.20 fps [ETA  0:00:02] [KPass 1/2 frame  142/141    29328B 2836647 us 50.06 fps [ETA  0:00:02] [KPass 1/2 frame  143/142    29536B 2860755 us 49.99 fps [ETA  0:00:02] [KPass 1/2 frame  144/143    29744B 2880312 us 49.99 fps [ETA  0:00:02] [KPass 1/2 frame  145/144    29952B 2903099 us 49.95 fps [ETA  0:00:02] [KPass 1/2 frame  146/145    30160B 2923322 us 49.94 fps [ETA  0:00:02] [KPass 1/2 frame  147/146    30368B 2943532 us 49.94 fps [ETA  0:00:02] [KPass 1/2 frame  148/147    30576B 2964958 us 49.92 fps [ETA  0:00:02] [KPass 1/2 frame  149/148    30784B 2984924 us 49.92 fps [ETA  0:00:02] [KPass 1/2 frame  150/149    30992B 3004702 us 49.92 fps [ETA  0:00:02] [KPass 1/2 frame  151/150    31200B 3023315 us 49.95 fps [ETA  0:00:02] [KPass 1/2 frame  152/151    31408B 3042592 us 49.96 fps [ETA  0:00:01] [KPass 1/2 frame  153/152    31616B 3061670 us 49.97 fps [ETA  0:00:01] [KPass 1/2 frame  154/153    31824B 3079773 us 50.00 fps [ETA  0:00:01] [KPass 1/2 frame  155/154    32032B 3098441 us 50.03 fps [ETA  0:00:01] [KPass 1/2 frame  156/155    32240B 3116042 us 50.06 fps [ETA  0:00:01] [KPass 1/2 frame  157/156    32448B 3138131 us 50.03 fps [ETA  0:00:01] [KPass 1/2 frame  158/157    32656B 3155567 us 50.07 fps [ETA  0:00:01] [KPass 1/2 frame  159/158    32864B 3173248 us 50.11 fps [ETA  0:00:01] [KPass 1/2 frame  160/159    33072B 3192210 us 50.12 fps [ETA  0:00:01] [KPass 1/2 frame  161/160    33280B 3210151 us 50.15 fps [ETA  0:00:01] [KPass 1/2 frame  162/161    33488B 3227449 us 50.19 fps [ETA  0:00:01] [KPass 1/2 frame  163/162    33696B 3245133 us 50.23 fps [ETA  0:00:01] [KPass 1/2 frame  164/163    33904B 3262920 us 50.26 fps [ETA  0:00:01] [KPass 1/2 frame  165/164    34112B 3281477 us 50.28 fps [ETA  0:00:01] [KPass 1/2 frame  166/165    34320B 3300081 us 50.30 fps [ETA  0:00:01] [KPass 1/2 frame  167/166    34528B 3324316 us 50.24 fps [ETA  0:00:01] [KPass 1/2 frame  168/167    34736B 3344009 us 50.24 fps [ETA  0:00:01] [KPass 1/2 frame  169/168    34944B 3361921 us 50.27 fps [ETA  0:00:01] [KPass 1/2 frame  170/169    35152B 3381713 us 50.27 fps [ETA  0:00:01] [KPass 1/2 frame  171/170    35360B 3402550 us 50.26 fps [ETA  0:00:01] [KPass 1/2 frame  172/171    35568B 3420096 us 50.29 fps [ETA  0:00:01] [KPass 1/2 frame  173/172    35776B 3437818 us 50.32 fps [ETA  0:00:01] [KPass 1/2 frame  174/173    35984B 3459161 us 50.30 fps [ETA  0:00:01] [KPass 1/2 frame  175/174    36192B 3479844 us 50.29 fps [ETA  0:00:01] [KPass 1/2 frame  176/175    36400B 3500550 us 50.28 fps [ETA  0:00:01] [KPass 1/2 frame  177/176    36608B 3521705 us 50.26 fps [ETA  0:00:01] [KPass 1/2 frame  178/177    36816B 3540024 us 50.28 fps [ETA  0:00:01] [KPass 1/2 frame  179/178    37024B 3558232 us 50.31 fps [ETA  0:00:01] [KPass 1/2 frame  180/179    37232B 3575880 us 50.34 fps [ETA  0:00:01] [KPass 1/2 frame  181/180    37440B 3593814 us 50.36 fps [ETA  0:00:01] [KPass 1/2 frame  182/181    37648B 3611570 us 50.39 fps [ETA  0:00:01] [KPass 1/2 frame  183/182    37856B 3630888 us 50.40 fps [ETA  0:00:01] [KPass 1/2 frame  184/183    38064B 3648754 us 50.43 fps [ETA  0:00:01] [KPass 1/2 frame  185/184    38272B 3668546 us 50.43 fps [ETA  0:00:01] [KPass 1/2 frame  186/185    38480B 3687626 us 50.44 fps [ETA  0:00:01] [KPass 1/2 frame  187/186    38688B 3707226 us 50.44 fps [ETA  0:00:01] [KPass 1/2 frame  188/187    38896B 3725355 us 50.46 fps [ETA  0:00:01] [KPass 1/2 frame  189/188    39104B 3743609 us 50.49 fps [ETA  0:00:01] [KPass 1/2 frame  190/189    39312B 3764794 us 50.47 fps [ETA  0:00:01] [KPass 1/2 frame  191/190    39520B 3783591 us 50.48 fps [ETA  0:00:01] [KPass 1/2 frame  192/191    39728B 3802360 us 50.49 fps [ETA  0:00:01] [KPass 1/2 frame  193/192    39936B 3820833 us 50.51 fps [ETA  0:00:01] [KPass 1/2 frame  194/193    40144B 3840298 us 50.52 fps [ETA  0:00:01] [KPass 1/2 frame  195/194    40352B 3860179 us 50.52 fps [ETA  0:00:01] [KPass 1/2 frame  196/195    40560B 3879430 us 50.52 fps [ETA  0:00:01] [KPass 1/2 frame  197/196    40768B 3897548 us 50.54 fps [ETA  0:00:01] [KPass 1/2 frame  198/197    40976B 3923166 us 50.47 fps [ETA  0:00:01] [KPass 1/2 frame  199/198    41184B 3949601 us 50.38 fps [ETA  0:00:01] [KPass 1/2 frame  200/199    41392B 3975450 us 50.31 fps [ETA  0:00:01] [KPass 1/2 frame  201/200    41600B 4005675 us 50.18 fps [ETA  0:00:00] [KPass 1/2 frame  202/201    41808B 4030089 us 50.12 fps [ETA  0:00:00] [KPass 1/2 frame  203/202    42016B 4051359 us 50.11 fps [ETA  0:00:00] [KPass 1/2 frame  204/203    42224B 4070711 us 50.11 fps [ETA  0:00:00] [KPass 1/2 frame  205/204    42432B 4089479 us 50.13 fps [ETA  0:00:00] [KPass 1/2 frame  206/205    42640B 4109923 us 50.12 fps [ETA  0:00:00] [KPass 1/2 frame  207/206    42848B 4128972 us 50.13 fps [ETA  0:00:00] [KPass 1/2 frame  208/207    43056B 4147226 us 50.15 fps [ETA  0:00:00] [KPass 1/2 frame  209/208    43264B 4165667 us 50.17 fps [ETA  0:00:00] [KPass 1/2 frame  210/209    43472B 4183254 us 50.20 fps [ETA  0:00:00] [KPass 1/2 frame  211/210    43680B 4200866 us 50.23 fps [ETA  0:00:00] [KPass 1/2 frame  212/211    43888B 4220063 us 50.24 fps [ETA  0:00:00] [KPass 1/2 frame  213/212    44096B 4238910 us 50.25 fps [ETA  0:00:00] [KPass 1/2 frame  214/213    44304B 4258249 us 50.26 fps [ETA  0:00:00] [KPass 1/2 frame  215/214    44512B 4279171 us 50.24 fps [ETA  0:00:00] [KPass 1/2 frame  216/215    44720B 4297830 us 50.26 fps [ETA  0:00:00] [KPass 1/2 frame  217/216    44928B 4316546 us 50.27 fps [ETA  0:00:00] [KPass 1/2 frame  218/217    45136B 4335053 us 50.29 fps [ETA  0:00:00] [KPass 1/2 frame  219/218    45344B 4353639 us 50.30 fps [ETA  0:00:00] [KPass 1/2 frame  220/219    45552B 4374342 us 50.29 fps [ETA  0:00:00] [KPass 1/2 frame  221/220    45760B 4394517 us 50.29 fps [ETA  0:00:00] [KPass 1/2 frame  222/221    45968B 4424719 us 50.17 fps [ETA  0:00:00] [KPass 1/2 frame  223/222    46176B 4455491 us 50.05 fps [ETA  0:00:00] [KPass 1/2 frame  224/223    46384B 4476962 us 50.03 fps [ETA  0:00:00] [KPass 1/2 frame  225/224    46592B 4498112 us 50.02 fps [ETA  0:00:00] [KPass 1/2 frame  226/225    46800B 4516860 us 50.03 fps [ETA  0:00:00] [KPass 1/2 frame  227/226    47008B 4535206 us 50.05 fps [ETA  0:00:00] [KPass 1/2 frame  228/227    47216B 4556745 us 50.04 fps [ETA  0:00:00] [KPass 1/2 frame  229/228    47424B 4577832 us 50.02 fps [ETA  0:00:00] [KPass 1/2 frame  230/229    47632B 4597001 us 50.03 fps [ETA  0:00:00] [KPass 1/2 frame  231/230    47840B 4616551 us 50.04 fps [ETA  0:00:00] [KPass 1/2 frame  232/231    48048B 4635233 us 50.05 fps [ETA  0:00:00] [KPass 1/2 frame  233/232    48256B 4653919 us 50.07 fps [ETA  0:00:00] [KPass 1/2 frame  234/233    48464B 4672864 us 50.08 fps [ETA  0:00:00] [KPass 1/2 frame  235/234    48672B 4694888 us 50.05 fps [ETA  0:00:00] [KPass 1/2 frame  236/235    48880B 4713532 us 50.07 fps [ETA  0:00:00] [KPass 1/2 frame  237/236    49088B 4732211 us 50.08 fps [ETA  0:00:00] [KPass 1/2 frame  238/237    49296B 4749445 us 50.11 fps [ETA  0:00:00] [KPass 1/2 frame  239/238    49504B 4769673 us 50.11 fps [ETA  0:00:00] [KPass 1/2 frame  240/239    49712B 4788173 us 50.12 fps [ETA  0:00:00] [KPass 1/2 frame  241/240    49920B 4805919 us 50.15 fps [ETA  0:00:00] [KPass 1/2 frame  242/241    50128B 4823859 us 50.17 fps [ETA  0:00:00] [KPass 1/2 frame  243/242    50336B 4845092 us 50.15 fps [ETA  0:00:00] [KPass 1/2 frame  244/243    50544B 4864851 us 50.16 fps [ETA  0:00:00] [KPass 1/2 frame  245/244    50752B 4883750 us 50.17 fps [ETA  0:00:00] [KPass 1/2 frame  246/245    50960B 4903143 us 50.17 fps [ETA  0:00:00] [KPass 1/2 frame  247/246    51168B 4920116 us 50.20 fps [ETA  0:00:00] [KPass 1/2 frame  248/247    51376B 4940485 us 50.20 fps [ETA  0:00:00] [KPass 1/2 frame  249/248    51584B 4957905 us 50.22 fps [ETA  0:00:00] [KPass 1/2 frame  250/249    51792B 4980757 us 50.19 fps [ETA  0:00:00] [KPass 1/2 frame  250/250    52000B 4999334 us 50.01 fps [ETA  0:00:00] [KPass 1/2 frame  250/251    52208B    1670b/f   41766b/s 4995045 us (50.05 fps)[K
Pass 2/2 frame    1/0          0B 4999402 us 12.00 fpm [ETA  unknown] [KPass 2/2 frame    2/0          0B 5111130 us 23.48 fpm [ETA  unknown] [KPass 2/2 frame    3/0          0B 5111295 us 35.22 fpm [ETA  unknown] [KPass 2/2 frame    4/0          0B 5111450 us 46.95 fpm [ETA  unknown] [KPass 2/2 frame    5/0          0B 5111687 us 58.69 fpm [ETA  unknown] [KPass 2/2 frame    6/0          0B 5111913 us 1.17 fps [ETA  unknown] [KPass 2/2 frame    7/0          0B 5112132 us 1.37 fps [ETA  unknown] [KPass 2/2 frame    8/0          0B 5112355 us 1.56 fps [ETA  unknown] [KPass 2/2 frame    9/0          0B 5112551 us 1.76 fps [ETA  unknown] [KPass 2/2 frame   10/0          0B 5112789 us 1.96 fps [ETA  unknown] [KPass 2/2 frame   11/0          0B 5112945 us 2.15 fps [ETA  unknown] [KPass 2/2 frame   12/0          0B 5113194 us 2.35 fps [ETA  unknown] [KPass 2/2 frame   13/0          0B 5113350 us 2.54 fps [ETA  unknown] [KPass 2/2 frame   14/0          0B 5113513 us 2.74 fps [ETA  unknown] [KPass 2/2 frame   15/0          0B 5113665 us 2.93 fps [ETA  unknown] [KPass 2/2 frame   16/0          0B 5113827 us 3.13 fps [ETA  unknown] [KPass 2/2 frame   17/0          0B 5113981 us 3.32 fps [ETA  unknown] [KPass 2/2 frame   18/0          0B 5114131 us 3.52 fps [ETA  unknown] [KPass 2/2 frame   19/0          0B 5114284 us 3.72 fps [ETA  unknown] [KPass 2/2 frame   20/0          0B 5114437 us 3.91 fps [ETA  unknown] [KPass 2/2 frame   21/0          0B 5114591 us 4.11 fps [ETA  unknown] [KPass 2/2 frame   22/0          0B 5114744 us 4.30 fps [ETA  unknown] [KPass 2/2 frame   23/0          0B 5115014 us 4.50 fps [ETA  unknown] [KPass 2/2 frame   24/0          0B 5115172 us 4.69 fps [ETA  unknown] [KPass 2/2 frame   25/0          0B 5115325 us 4.89 fps [ETA  unknown]    4473F[KPass 2/2 frame   26/1       4473B   14234 ms 1.83 fps [ETA  0:59:04]    1276F[KPass 2/2 frame   27/2       5749B   16039 ms 1.68 fps [ETA  0:53:38]     181F[KPass 2/2 frame   28/3       5930B   17229 ms 1.63 fps [ETA  0:46:09]     157F[KPass 2/2 frame   29/4       6087B   18315 ms 1.58 fps [ETA  0:38:55]     152F[KPass 2/2 frame   30/5       6239B   19442 ms 1.54 fps [ETA  0:32:51]     134F[KPass 2/2 frame   31/6       6373B   20492 ms 1.51 fps [ETA  0:27:58]     119F[KPass 2/2 frame   32/7       6492B   21469 ms 1.49 fps [ETA  0:24:06]     144F[KPass 2/2 frame   33/8       6636B   22533 ms 1.46 fps [ETA  0:21:04]     140F[KPass 2/2 frame   34/9       6776B   23609 ms 1.44 fps [ETA  0:18:40]     137F[KPass 2/2 frame   35/10      6913B   24722 ms 1.42 fps [ETA  0:16:45]     124F[KPass 2/2 frame   36/11      7037B   25749 ms 1.40 fps [ETA  0:15:11]      62F[KPass 2/2 frame   37/12      7099B   26464 ms 1.40 fps [ETA  0:13:51]      19F[KPass 2/2 frame   38/13      7118B   35240 ms 1.08 fps [ETA  0:13:19]    3694F[KPass 2/2 frame   39/14     10812B   36353 ms 1.07 fps [ETA  0:12:47]     160F[KPass 2/2 frame   40/15     10972B   37353 ms 1.07 fps [ETA  0:12:15]     164F[KPass 2/2 frame   41/16     11136B   38451 ms 1.07 fps [ETA  0:11:46]     162F[KPass 2/2 frame   42/17     11298B   39450 ms 1.06 fps [ETA  0:11:17]     175F[KPass 2/2 frame   43/18     11473B   40449 ms 1.06 fps [ETA  0:10:50]     136F[KPass 2/2 frame   44/19     11609B   41392 ms 1.06 fps [ETA  0:10:25]     151F[KPass 2/2 frame   45/20     11760B   42371 ms 1.06 fps [ETA  0:10:01]     169F[KPass 2/2 frame   46/21     11929B   43359 ms 1.06 fps [ETA  0:09:39]     165F[KPass 2/2 frame   47/22     12094B   44382 ms 1.06 fps [ETA  0:09:19]     144F[KPass 2/2 frame   48/23     12238B   45340 ms 1.06 fps [ETA  0:09:00]      97F[KPass 2/2 frame   49/24     12335B   46060 ms 1.06 fps [ETA  0:08:42]      29F[KPass 2/2 frame   50/25     12364B   53209 ms 56.38 fpm [ETA  0:08:34]    2886F[KPass 2/2 frame   51/26     15250B   54280 ms 56.37 fpm [ETA  0:08:26]     188F[KPass 2/2 frame   52/27     15438B   55410 ms 56.31 fpm [ETA  0:08:17]     203F[KPass 2/2 frame   53/28     15641B   56548 ms 56.23 fpm [ETA  0:08:09]     183F[KPass 2/2 frame   54/29     15824B   57596 ms 56.25 fpm [ETA  0:08:00]     196F[KPass 2/2 frame   55/30     16020B   58661 ms 56.26 fpm [ETA  0:07:51]     173F[KPass 2/2 frame   56/31     16193B   59670 ms 56.31 fpm [ETA  0:07:42]     176F[KPass 2/2 frame   57/32     16369B   60694 ms 56.35 fpm [ETA  0:07:34]     157F[KPass 2/2 frame   58/33     16526B   61702 ms 56.40 fpm [ETA  0:07:25]     182F[KPass 2/2 frame   59/34     16708B   62766 ms 56.40 fpm [ETA  0:07:17]     191F[KPass 2/2 frame   60/35     16899B   63816 ms 56.41 fpm [ETA  0:07:09]     115F[KPass 2/2 frame   61/36     17014B   64551 ms 56.70 fpm [ETA  0:07:01]      19F[KPass 2/2 frame   62/37     17033B   72559 ms 51.27 fpm [ETA  0:06:59]    3006F[KPass 2/2 frame   63/38     20039B   73688 ms 51.30 fpm [ETA  0:06:56]     247F[KPass 2/2 frame   64/39     20286B   74708 ms 51.40 fpm [ETA  0:06:53]     194F[KPass 2/2 frame   65/40     20480B   75728 ms 51.50 fpm [ETA  0:06:49]     246F[KPass 2/2 frame   66/41     20726B   76819 ms 51.55 fpm [ETA  0:06:45]     257F[KPass 2/2 frame   67/42     20983B   77859 ms 51.63 fpm [ETA  0:06:41]     252F[KPass 2/2 frame   68/43     21235B   78828 ms 51.76 fpm [ETA  0:06:36]     275F[KPass 2/2 frame   69/44     21510B   79873 ms 51.83 fpm [ETA  0:06:32]     262F[KPass 2/2 frame   70/45     21772B   80992 ms 51.86 fpm [ETA  0:06:27]     260F[KPass 2/2 frame   71/46     22032B   82048 ms 51.92 fpm [ETA  0:06:22]     298F[KPass 2/2 frame   72/47     22330B   83099 ms 51.99 fpm [ETA  0:06:17]     210F[KPass 2/2 frame   73/48     22540B   83970 ms 52.16 fpm [ETA  0:06:13]      23F[KPass 2/2 frame   74/49     22563B   93824 ms 47.32 fpm [ETA  0:06:12]    2975F[KPass 2/2 frame   75/50     25538B   94956 ms 47.39 fpm [ETA  0:06:12]     367F[KPass 2/2 frame   76/51     25905B   96175 ms 47.41 fpm [ETA  0:06:10]     295F[KPass 2/2 frame   77/52     26200B   97304 ms 47.48 fpm [ETA  0:06:09]     365F[KPass 2/2 frame   78/53     26565B   98418 ms 47.55 fpm [ETA  0:06:07]     369F[KPass 2/2 frame   79/54     26934B   99541 ms 47.62 fpm [ETA  0:06:04]     343F[KPass 2/2 frame   80/55     27277B  100641 ms 47.69 fpm [ETA  0:06:02]     407F[KPass 2/2 frame   81/56     27684B  101768 ms 47.76 fpm [ETA  0:05:59]     322F[KPass 2/2 frame   82/57     28006B  102845 ms 47.84 fpm [ETA  0:05:56]     319F[KPass 2/2 frame   83/58     28325B  103999 ms 47.88 fpm [ETA  0:05:53]     316F[KPass 2/2 frame   84/59     28641B  105083 ms 47.96 fpm [ETA  0:05:49]     317F[KPass 2/2 frame   85/60     28958B  105910 ms 48.15 fpm [ETA  0:05:46]      19F[KPass 2/2 frame   86/61     28977B  112661 ms 45.80 fpm [ETA  0:05:45]    3298F[KPass 2/2 frame   87/62     32275B  113868 ms 45.84 fpm [ETA  0:05:43]     630F[KPass 2/2 frame   88/63     32905B  115090 ms 45.88 fpm [ETA  0:05:41]     494F[KPass 2/2 frame   89/64     33399B  116338 ms 45.90 fpm [ETA  0:05:39]     520F[KPass 2/2 frame   90/65     33919B  117540 ms 45.94 fpm [ETA  0:05:37]     624F[KPass 2/2 frame   91/66     34543B  118711 ms 45.99 fpm [ETA  0:05:35]     542F[KPass 2/2 frame   92/67     35085B  119833 ms 46.06 fpm [ETA  0:05:32]     594F[KPass 2/2 frame   93/68     35679B  120988 ms 46.12 fpm [ETA  0:05:29]     503F[KPass 2/2 frame   94/69     36182B  122092 ms 46.19 fpm [ETA  0:05:26]     511F[KPass 2/2 frame   95/70     36693B  123214 ms 46.26 fpm [ETA  0:05:24]     523F[KPass 2/2 frame   96/71     37216B  124333 ms 46.33 fpm [ETA  0:05:21]     563F[KPass 2/2 frame   97/72     37779B  125370 ms 46.42 fpm [ETA  0:05:18]      23F[KPass 2/2 frame   98/73     37802B  132455 ms 44.39 fpm [ETA  0:05:16]    3293F[KPass 2/2 frame   99/74     41095B  133671 ms 44.44 fpm [ETA  0:05:15]     840F[KPass 2/2 frame  100/75     41935B  134914 ms 44.47 fpm [ETA  0:05:13]     692F[KPass 2/2 frame  101/76     42627B  136151 ms 44.51 fpm [ETA  0:05:12]     682F[KPass 2/2 frame  102/77     43309B  137282 ms 44.58 fpm [ETA  0:05:10]     723F[KPass 2/2 frame  103/78     44032B  138428 ms 44.64 fpm [ETA  0:05:07]     672F[KPass 2/2 frame  104/79     44704B  139518 ms 44.73 fpm [ETA  0:05:05]     703F[KPass 2/2 frame  105/80     45407B  140660 ms 44.79 fpm [ETA  0:05:03]     682F[KPass 2/2 frame  106/81     46089B  141782 ms 44.86 fpm [ETA  0:05:00]     685F[KPass 2/2 frame  107/82     46774B  143106 ms 44.86 fpm [ETA  0:04:58]     630F[KPass 2/2 frame  108/83     47404B  144283 ms 44.91 fpm [ETA  0:04:55]     690F[KPass 2/2 frame  109/84     48094B  145299 ms 45.01 fpm [ETA  0:04:52]      22F[KPass 2/2 frame  110/85     48116B  152205 ms 43.36 fpm [ETA  0:04:51]    3285F[KPass 2/2 frame  111/86     51401B  153367 ms 43.43 fpm [ETA  0:04:50]     747F[KPass 2/2 frame  112/87     52148B  154505 ms 43.49 fpm [ETA  0:04:48]     696F[KPass 2/2 frame  113/88     52844B  155634 ms 43.56 fpm [ETA  0:04:46]     693F[KPass 2/2 frame  114/89     53537B  156792 ms 43.62 fpm [ETA  0:04:44]     700F[KPass 2/2 frame  115/90     54237B  157891 ms 43.70 fpm [ETA  0:04:42]     694F[KPass 2/2 frame  116/91     54931B  159006 ms 43.77 fpm [ETA  0:04:40]     631F[KPass 2/2 frame  117/92     55562B  160133 ms 43.84 fpm [ETA  0:04:38]     718F[KPass 2/2 frame  118/93     56280B  161222 ms 43.91 fpm [ETA  0:04:36]     558F[KPass 2/2 frame  119/94     56838B  162398 ms 43.97 fpm [ETA  0:04:33]     623F[KPass 2/2 frame  120/95     57461B  163520 ms 44.03 fpm [ETA  0:04:31]     729F[KPass 2/2 frame  121/96     58190B  164567 ms 44.12 fpm [ETA  0:04:28]      30F[KPass 2/2 frame  122/97     58220B  171943 ms 42.57 fpm [ETA  0:04:27]    3221F[KPass 2/2 frame  123/98     61441B  173153 ms 42.62 fpm [ETA  0:04:26]     702F[KPass 2/2 frame  124/99     62143B  174309 ms 42.68 fpm [ETA  0:04:24]     623F[KPass 2/2 frame  125/100    62766B  175482 ms 42.74 fpm [ETA  0:04:22]     636F[KPass 2/2 frame  126/101    63402B  176600 ms 42.81 fpm [ETA  0:04:21]     659F[KPass 2/2 frame  127/102    64061B  177653 ms 42.89 fpm [ETA  0:04:19]     680F[KPass 2/2 frame  128/103    64741B  178695 ms 42.98 fpm [ETA  0:04:17]     675F[KPass 2/2 frame  129/104    65416B  179845 ms 43.04 fpm [ETA  0:04:14]     646F[KPass 2/2 frame  130/105    66062B  181168 ms 43.05 fpm [ETA  0:04:12]     549F[KPass 2/2 frame  131/106    66611B  182453 ms 43.08 fpm [ETA  0:04:10]     752F[KPass 2/2 frame  132/107    67363B  183627 ms 43.13 fpm [ETA  0:04:08]     712F[KPass 2/2 frame  133/108    68075B  184531 ms 43.24 fpm [ETA  0:04:06]      23F[KPass 2/2 frame  134/109    68098B  191500 ms 41.98 fpm [ETA  0:04:04]    3288F[KPass 2/2 frame  135/110    71386B  192663 ms 42.04 fpm [ETA  0:04:03]     687F[KPass 2/2 frame  136/111    72073B  193808 ms 42.10 fpm [ETA  0:04:01]     658F[KPass 2/2 frame  137/112    72731B  194972 ms 42.16 fpm [ETA  0:04:00]     681F[KPass 2/2 frame  138/113    73412B  196094 ms 42.22 fpm [ETA  0:03:58]     660F[KPass 2/2 frame  139/114    74072B  197206 ms 42.29 fpm [ETA  0:03:56]     691F[KPass 2/2 frame  140/115    74763B  198257 ms 42.37 fpm [ETA  0:03:54]     684F[KPass 2/2 frame  141/116    75447B  199379 ms 42.43 fpm [ETA  0:03:52]     665F[KPass 2/2 frame  142/117    76112B  200478 ms 42.50 fpm [ETA  0:03:50]     737F[KPass 2/2 frame  143/118    76849B  201668 ms 42.55 fpm [ETA  0:03:48]     773F[KPass 2/2 frame  144/119    77622B  202774 ms 42.61 fpm [ETA  0:03:46]     652F[KPass 2/2 frame  145/120    78274B  203842 ms 42.68 fpm [ETA  0:03:43]      24F[KPass 2/2 frame  146/121    78298B  208680 ms 41.98 fpm [ETA  0:03:42]    3713F[KPass 2/2 frame  147/122    82011B  209652 ms 42.07 fpm [ETA  0:03:40]    1413F[KPass 2/2 frame  148/123    83424B  210482 ms 42.19 fpm [ETA  0:03:38]    1226F[KPass 2/2 frame  149/124    84650B  211196 ms 42.33 fpm [ETA  0:03:36]    1295F[KPass 2/2 frame  150/125    85945B  211888 ms 42.48 fpm [ETA  0:03:34]    1470F[KPass 2/2 frame  151/126    87415B  212649 ms 42.61 fpm [ETA  0:03:32]    1243F[KPass 2/2 frame  152/127    88658B  213302 ms 42.76 fpm [ETA  0:03:30]      23F[KPass 2/2 frame  153/128    88681B  213600 ms 42.98 fpm [ETA  0:03:27]    5004F[KPass 2/2 frame  154/129    93685B  221783 ms 41.66 fpm [ETA  0:03:26]    3582F[KPass 2/2 frame  155/130    97267B  222598 ms 41.78 fpm [ETA  0:03:24]     737F[KPass 2/2 frame  156/131    98004B  223687 ms 41.84 fpm [ETA  0:03:23]     725F[KPass 2/2 frame  157/132    98729B  224838 ms 41.90 fpm [ETA  0:03:21]     762F[KPass 2/2 frame  158/133    99491B  225991 ms 41.95 fpm [ETA  0:03:19]     798F[KPass 2/2 frame  159/134   100289B  227096 ms 42.01 fpm [ETA  0:03:17]     644F[KPass 2/2 frame  160/135   100933B  228213 ms 42.07 fpm [ETA  0:03:15]     721F[KPass 2/2 frame  161/136   101654B  229290 ms 42.13 fpm [ETA  0:03:13]     729F[KPass 2/2 frame  162/137   102383B  230358 ms 42.20 fpm [ETA  0:03:11]     580F[KPass 2/2 frame  163/138   102963B  231497 ms 42.25 fpm [ETA  0:03:09]     773F[KPass 2/2 frame  164/139   103736B  232594 ms 42.31 fpm [ETA  0:03:07]     679F[KPass 2/2 frame  165/140   104415B  233585 ms 42.38 fpm [ETA  0:03:05]      26F[KPass 2/2 frame  166/141   104441B  241878 ms 41.18 fpm [ETA  0:03:04]    3315F[KPass 2/2 frame  167/142   107756B  243066 ms 41.22 fpm [ETA  0:03:03]     728F[KPass 2/2 frame  168/143   108484B  244268 ms 41.27 fpm [ETA  0:03:01]     662F[KPass 2/2 frame  169/144   109146B  245459 ms 41.31 fpm [ETA  0:02:59]     785F[KPass 2/2 frame  170/145   109931B  246571 ms 41.37 fpm [ETA  0:02:58]     763F[KPass 2/2 frame  171/146   110694B  247744 ms 41.41 fpm [ETA  0:02:56]     794F[KPass 2/2 frame  172/147   111488B  248886 ms 41.46 fpm [ETA  0:02:54]     746F[KPass 2/2 frame  173/148   112234B  250025 ms 41.52 fpm [ETA  0:02:53]     730F[KPass 2/2 frame  174/149   112964B  251162 ms 41.57 fpm [ETA  0:02:51]     616F[KPass 2/2 frame  175/150   113580B  252316 ms 41.61 fpm [ETA  0:02:49]     789F[KPass 2/2 frame  176/151   114369B  253478 ms 41.66 fpm [ETA  0:02:47]     723F[KPass 2/2 frame  177/152   115092B  254471 ms 41.73 fpm [ETA  0:02:45]      35F[KPass 2/2 frame  178/153   115127B  262667 ms 40.66 fpm [ETA  0:02:44]    3370F[KPass 2/2 frame  179/154   118497B  263841 ms 40.71 fpm [ETA  0:02:42]     828F[KPass 2/2 frame  180/155   119325B  264992 ms 40.76 fpm [ETA  0:02:41]     661F[KPass 2/2 frame  181/156   119986B  266152 ms 40.80 fpm [ETA  0:02:39]     720F[KPass 2/2 frame  182/157   120706B  267300 ms 40.85 fpm [ETA  0:02:37]     726F[KPass 2/2 frame  183/158   121432B  268450 ms 40.90 fpm [ETA  0:02:36]     673F[KPass 2/2 frame  184/159   122105B  269534 ms 40.96 fpm [ETA  0:02:34]     758F[KPass 2/2 frame  185/160   122863B  270765 ms 40.99 fpm [ETA  0:02:32]     686F[KPass 2/2 frame  186/161   123549B  271872 ms 41.05 fpm [ETA  0:02:30]     591F[KPass 2/2 frame  187/162   124140B  273003 ms 41.10 fpm [ETA  0:02:29]     679F[KPass 2/2 frame  188/163   124819B  274165 ms 41.14 fpm [ETA  0:02:27]     710F[KPass 2/2 frame  189/164   125529B  275116 ms 41.22 fpm [ETA  0:02:25]      27F[KPass 2/2 frame  190/165   125556B  282166 ms 40.40 fpm [ETA  0:02:23]    4060F[KPass 2/2 frame  191/166   129616B  284057 ms 40.34 fpm [ETA  0:02:22]     778F[KPass 2/2 frame  192/167   130394B  285230 ms 40.39 fpm [ETA  0:02:20]     590F[KPass 2/2 frame  193/168   130984B  286484 ms 40.42 fpm [ETA  0:02:19]     723F[KPass 2/2 frame  194/169   131707B  287642 ms 40.47 fpm [ETA  0:02:17]     757F[KPass 2/2 frame  195/170   132464B  288829 ms 40.51 fpm [ETA  0:02:15]     695F[KPass 2/2 frame  196/171   133159B  289949 ms 40.56 fpm [ETA  0:02:14]     671F[KPass 2/2 frame  197/172   133830B  291090 ms 40.61 fpm [ETA  0:02:12]     668F[KPass 2/2 frame  198/173   134498B  292136 ms 40.67 fpm [ETA  0:02:10]     632F[KPass 2/2 frame  199/174   135130B  293242 ms 40.72 fpm [ETA  0:02:08]     601F[KPass 2/2 frame  200/175   135731B  294383 ms 40.76 fpm [ETA  0:02:07]     758F[KPass 2/2 frame  201/176   136489B  295459 ms 40.82 fpm [ETA  0:02:05]      36F[KPass 2/2 frame  202/177   136525B  302290 ms 40.09 fpm [ETA  0:02:03]    3325F[KPass 2/2 frame  203/178   139850B  303364 ms 40.15 fpm [ETA  0:02:02]     775F[KPass 2/2 frame  204/179   140625B  304446 ms 40.20 fpm [ETA  0:02:00]     674F[KPass 2/2 frame  205/180   141299B  305535 ms 40.26 fpm [ETA  0:01:58]     679F[KPass 2/2 frame  206/181   141978B  306643 ms 40.31 fpm [ETA  0:01:57]     733F[KPass 2/2 frame  207/182   142711B  307701 ms 40.36 fpm [ETA  0:01:55]     710F[KPass 2/2 frame  208/183   143421B  308799 ms 40.41 fpm [ETA  0:01:53]     616F[KPass 2/2 frame  209/184   144037B  310011 ms 40.45 fpm [ETA  0:01:51]     699F[KPass 2/2 frame  210/185   144736B  311108 ms 40.50 fpm [ETA  0:01:49]     659F[KPass 2/2 frame  211/186   145395B  312289 ms 40.54 fpm [ETA  0:01:48]     685F[KPass 2/2 frame  212/187   146080B  313426 ms 40.58 fpm [ETA  0:01:46]     744F[KPass 2/2 frame  213/188   146824B  314588 ms 40.62 fpm [ETA  0:01:44]      60F[KPass 2/2 frame  214/189   146884B  323148 ms 39.73 fpm [ETA  0:01:43]    4237F[KPass 2/2 frame  215/190   151121B  324968 ms 39.70 fpm [ETA  0:01:41]     819F[KPass 2/2 frame  216/191   151940B  326197 ms 39.73 fpm [ETA  0:01:39]     751F[KPass 2/2 frame  217/192   152691B  327430 ms 39.76 fpm [ETA  0:01:38]     776F[KPass 2/2 frame  218/193   153467B  328686 ms 39.79 fpm [ETA  0:01:36]     734F[KPass 2/2 frame  219/194   154201B  329902 ms 39.83 fpm [ETA  0:01:35]     772F[KPass 2/2 frame  220/195   154973B  331116 ms 39.87 fpm [ETA  0:01:33]     721F[KPass 2/2 frame  221/196   155694B  332493 ms 39.88 fpm [ETA  0:01:31]     777F[KPass 2/2 frame  222/197   156471B  333793 ms 39.90 fpm [ETA  0:01:29]     637F[KPass 2/2 frame  223/198   157108B  335054 ms 39.93 fpm [ETA  0:01:28]     693F[KPass 2/2 frame  224/199   157801B  336189 ms 39.98 fpm [ETA  0:01:26]     788F[KPass 2/2 frame  225/200   158589B  337342 ms 40.02 fpm [ETA  0:01:24]      59F[KPass 2/2 frame  226/201   158648B  344509 ms 39.36 fpm [ETA  0:01:23]    3376F[KPass 2/2 frame  227/202   162024B  345662 ms 39.40 fpm [ETA  0:01:21]     846F[KPass 2/2 frame  228/203   162870B  346861 ms 39.44 fpm [ETA  0:01:19]     681F[KPass 2/2 frame  229/204   163551B  348019 ms 39.48 fpm [ETA  0:01:18]     767F[KPass 2/2 frame  230/205   164318B  349142 ms 39.53 fpm [ETA  0:01:16]     737F[KPass 2/2 frame  231/206   165055B  350295 ms 39.57 fpm [ETA  0:01:14]     784F[KPass 2/2 frame  232/207   165839B  351494 ms 39.60 fpm [ETA  0:01:13]     711F[KPass 2/2 frame  233/208   166550B  352698 ms 39.64 fpm [ETA  0:01:11]     697F[KPass 2/2 frame  234/209   167247B  353848 ms 39.68 fpm [ETA  0:01:09]     706F[KPass 2/2 frame  235/210   167953B  355087 ms 39.71 fpm [ETA  0:01:07]     742F[KPass 2/2 frame  236/211   168695B  356268 ms 39.75 fpm [ETA  0:01:06]     791F[KPass 2/2 frame  237/212   169486B  357422 ms 39.78 fpm [ETA  0:01:04]      77F[KPass 2/2 frame  238/213   169563B  365707 ms 39.05 fpm [ETA  0:01:02]    3309F[KPass 2/2 frame  239/214   172872B  366802 ms 39.09 fpm [ETA  0:01:01]     709F[KPass 2/2 frame  240/215   173581B  368006 ms 39.13 fpm [ETA  0:00:59]     685F[KPass 2/2 frame  241/216   174266B  369253 ms 39.16 fpm [ETA  0:00:57]     787F[KPass 2/2 frame  242/217   175053B  370457 ms 39.19 fpm [ETA  0:00:56]     734F[KPass 2/2 frame  243/218   175787B  371673 ms 39.23 fpm [ETA  0:00:54]     666F[KPass 2/2 frame  244/219   176453B  372801 ms 39.27 fpm [ETA  0:00:52]     768F[KPass 2/2 frame  245/220   177221B  373959 ms 39.31 fpm [ETA  0:00:51]     751F[KPass 2/2 frame  246/221   177972B  375137 ms 39.35 fpm [ETA  0:00:49]     789F[KPass 2/2 frame  247/222   178761B  376351 ms 39.38 fpm [ETA  0:00:47]     745F[KPass 2/2 frame  248/223   179506B  377563 ms 39.41 fpm [ETA  0:00:45]     741F[KPass 2/2 frame  249/224   180247B  379229 ms 39.40 fpm [ETA  0:00:44]      41F[KPass 2/2 frame  250/225   180288B  387197 ms 38.74 fpm [ETA  0:00:42]    3202F[KPass 2/2 frame  250/226   183490B  388440 ms 38.62 fpm [ETA  0:00:40]     735F    667F    731F    759F    776F    737F    677F    625F    821F    743F     32F   3155F    659F    680F    637F    733F     68F   3378F   1272F   1196F   1367F   1359F    627F     19F[KPass 2/2 frame  250/250   205943B  419472 ms 35.76 fpm [ETA  0:00:41] [KPass 2/2 frame  250/250   205943B    6590b/f  164754b/s  414470 ms (0.60 fps)[K
ffprobe version 4.2.2-ok2 Copyright (c) 2007-2019 the FFmpeg developers
  built with gcc 9 (Ubuntu 9.3.0-ok4)
  configuration: --prefix=/usr --extra-version=ok2 --toolchain=hardened --libdir=/usr/lib/riscv64-linux-gnu --incdir=/usr/include/riscv64-linux-gnu --arch=riscv64 --enable-gpl --disable-stripping --enable-avresample --disable-filter=resample --enable-avisynth --enable-gnutls --enable-ladspa --enable-libaom --enable-libass --enable-libbluray --enable-libbs2b --enable-libcaca --enable-libcdio --enable-libcodec2 --enable-libflite --enable-libfontconfig --enable-libfreetype --enable-libfribidi --enable-libgme --enable-libgsm --enable-libjack --enable-libmp3lame --enable-libmysofa --enable-libopenjpeg --enable-libopenmpt --enable-libopus --enable-libpulse --enable-librsvg --enable-librubberband --enable-libshine --enable-libsnappy --enable-libsoxr --enable-libspeex --enable-libssh --enable-libtheora --enable-libtwolame --enable-libvidstab --enable-libvorbis --enable-libvpx --enable-libwavpack --enable-libwebp --enable-libx265 --enable-libxml2 --enable-libxvid --enable-libzmq --enable-libzvbi --enable-lv2 --enable-omx --enable-openal --enable-opencl --enable-opengl --enable-sdl2 --enable-libdc1394 --enable-libdrm --enable-libiec61883 --enable-chromaprint --enable-frei0r --enable-libx264 --enable-shared
  libavutil      56. 31.100 / 56. 31.100
  libavcodec     58. 54.100 / 58. 54.100
  libavformat    58. 29.100 / 58. 29.100
  libavdevice    58.  8.100 / 58.  8.100
  libavfilter     7. 57.100 /  7. 57.100
  libavresample   4.  0.  0 /  4.  0.  0
  libswscale      5.  5.100 /  5.  5.100
  libswresample   3.  5.100 /  3.  5.100
  libpostproc    55.  5.100 / 55.  5.100
Input #0, matroska,webm, from 'out.raw':
  Metadata:
    encoder         : libwebm-0.3.0.0
  Duration: 00:00:09.96, start: 0.000000, bitrate: 167 kb/s
    Stream #0:0(eng): Video: vp9 (Profile 0), yuv420p(tv), 320x240, SAR 1:1 DAR 4:3, 25 fps, 25 tbr, 1k tbn, 1k tbc (default)
# ffprobe output

[streams.stream.0]
index=0
codec_name=vp9
codec_long_name=Google VP9
profile=Profile 0
codec_type=video
codec_time_base=1/25
codec_tag_string=[0][0][0][0]
codec_tag=0x0000
width=320
height=240
coded_width=320
coded_height=240
has_b_frames=0
sample_aspect_ratio=1\:1
display_aspect_ratio=4\:3
pix_fmt=yuv420p
level=-99
color_range=tv
color_space=unknown
color_transfer=unknown
color_primaries=unknown
chroma_location=unspecified
field_order=unknown
timecode=N/A
refs=1
id=N/A
r_frame_rate=25/1
avg_frame_rate=25/1
time_base=1/1000
start_pts=0
start_time=0.000000
duration_ts=N/A
duration=N/A
bit_rate=N/A
max_bit_rate=N/A
bits_per_raw_sample=N/A
nb_frames=N/A
nb_read_frames=N/A
nb_read_packets=N/A

[streams.stream.0.disposition]
default=1
dub=0
original=0
comment=0
lyrics=0
karaoke=0
forced=0
hearing_impaired=0
visual_impaired=0
clean_effects=0
attached_pic=0
timed_thumbnails=0

[streams.stream.0.tags]
language=eng
codec_name=vp9
codec_long_name=Google VP9
autopkgtest: DBG: testbed command exited with code 0
autopkgtest [01:06:39]: test encode-testimage: -----------------------]
autopkgtest: DBG: testbed executing test finished with exit status 0
autopkgtest: DBG: sending command to testbed: copyup /tmp/autopkgtest.Fc1c2w/encode-testimage-stdout /home/minami/Documents/openkylin-riscv/test/libvpx/encode-testimage-stdout
autopkgtest-virt-qemu: DBG: executing copyup /tmp/autopkgtest.Fc1c2w/encode-testimage-stdout /home/minami/Documents/openkylin-riscv/test/libvpx/encode-testimage-stdout
autopkgtest-virt-qemu: DBG: ['cmdls', "(['/tmp/autopkgtest-qemu.7u_ps0bf/runcmd', 'sh', '-ec', 'cat </tmp/autopkgtest.Fc1c2w/encode-testimage-stdout'], ['cat'])"]
autopkgtest-virt-qemu: DBG: ['srcstdin', "<_io.BufferedReader name='/dev/null'>", 'deststdout', "<_io.BufferedWriter name='/home/minami/Documents/openkylin-riscv/test/libvpx/encode-testimage-stdout'>", 'devnull_read', <_io.BufferedReader name='/dev/null'>]
autopkgtest-virt-qemu: DBG:  +< /tmp/autopkgtest-qemu.7u_ps0bf/runcmd sh -ec cat </tmp/autopkgtest.Fc1c2w/encode-testimage-stdout
autopkgtest-virt-qemu: DBG:  +> cat
autopkgtest-virt-qemu: DBG:  +>?
autopkgtest-virt-qemu: DBG:  +<?
autopkgtest: DBG: got reply from testbed: ok
autopkgtest: DBG: sending command to testbed: copyup /tmp/autopkgtest.Fc1c2w/encode-testimage-stderr /home/minami/Documents/openkylin-riscv/test/libvpx/encode-testimage-stderr
autopkgtest-virt-qemu: DBG: executing copyup /tmp/autopkgtest.Fc1c2w/encode-testimage-stderr /home/minami/Documents/openkylin-riscv/test/libvpx/encode-testimage-stderr
autopkgtest-virt-qemu: DBG: ['cmdls', "(['/tmp/autopkgtest-qemu.7u_ps0bf/runcmd', 'sh', '-ec', 'cat </tmp/autopkgtest.Fc1c2w/encode-testimage-stderr'], ['cat'])"]
autopkgtest-virt-qemu: DBG: ['srcstdin', "<_io.BufferedReader name='/dev/null'>", 'deststdout', "<_io.BufferedWriter name='/home/minami/Documents/openkylin-riscv/test/libvpx/encode-testimage-stderr'>", 'devnull_read', <_io.BufferedReader name='/dev/null'>]
autopkgtest-virt-qemu: DBG:  +< /tmp/autopkgtest-qemu.7u_ps0bf/runcmd sh -ec cat </tmp/autopkgtest.Fc1c2w/encode-testimage-stderr
autopkgtest-virt-qemu: DBG:  +> cat
autopkgtest-virt-qemu: DBG:  +>?
autopkgtest-virt-qemu: DBG:  +<?
autopkgtest: DBG: got reply from testbed: ok
autopkgtest [01:06:41]: test encode-testimage:  - - - - - - - - - - results - - - - - - - - - -
encode-testimage     PASS
autopkgtest: DBG: sending command to testbed: copyup /tmp/autopkgtest.Fc1c2w/encode-testimage-artifacts/ /home/minami/Documents/openkylin-riscv/test/libvpx/artifacts/
autopkgtest-virt-qemu: DBG: executing copyup /tmp/autopkgtest.Fc1c2w/encode-testimage-artifacts/ /home/minami/Documents/openkylin-riscv/test/libvpx/artifacts/
autopkgtest-virt-qemu: DBG: ['cmdls', "(['/tmp/autopkgtest-qemu.7u_ps0bf/runcmd', 'sh', '-ec', 'cd /tmp/autopkgtest.Fc1c2w/encode-testimage-artifacts/; tar --warning=none -c . -f -'], ['tar', '--directory', '/home/minami/Documents/openkylin-riscv/test/libvpx/artifacts/', '--warning=none', '--preserve-permissions', '--extract', '--no-same-owner', '-f', '-'])"]
autopkgtest-virt-qemu: DBG: ['srcstdin', "<_io.BufferedReader name='/dev/null'>", 'deststdout', "<_io.BufferedReader name='/dev/null'>", 'devnull_read', <_io.BufferedReader name='/dev/null'>]
autopkgtest-virt-qemu: DBG:  +< /tmp/autopkgtest-qemu.7u_ps0bf/runcmd sh -ec cd /tmp/autopkgtest.Fc1c2w/encode-testimage-artifacts/; tar --warning=none -c . -f -
autopkgtest-virt-qemu: DBG:  +> tar --directory /home/minami/Documents/openkylin-riscv/test/libvpx/artifacts/ --warning=none --preserve-permissions --extract --no-same-owner -f -
autopkgtest-virt-qemu: DBG:  +>?
autopkgtest-virt-qemu: DBG:  +<?
autopkgtest: DBG: got reply from testbed: ok
autopkgtest: DBG: testbed command ['rm', '-rf', '/tmp/autopkgtest.Fc1c2w/encode-testimage-artifacts', '/tmp/autopkgtest.Fc1c2w/autopkgtest_tmp'], kind short, sout raw, serr pipe, env []
autopkgtest: DBG: testbed command exited with code 0
autopkgtest: DBG: needs_reset, previously=False, requested by run_tests() line 208
autopkgtest [01:06:42]: @@@@@@@@@@@@@@@@@@@@ summary
encode-testimage     PASS
autopkgtest: DBG: testbed stop
autopkgtest: DBG: testbed close, scratch=/tmp/autopkgtest.Fc1c2w
autopkgtest: DBG: sending command to testbed: close
autopkgtest-virt-qemu: DBG: executing close
autopkgtest-virt-qemu: DBG: cleanup...
qemu-system-riscv64: terminating on signal 15 from pid 1245881 (/usr/bin/python3)
autopkgtest: DBG: got reply from testbed: ok
autopkgtest: DBG: sending command to testbed: quit
autopkgtest-virt-qemu: DBG: executing quit
autopkgtest-virt-qemu: DBG: cleanup...
